<svg width="24" height="24" viewBox="0 0 24 24" fill="none" xmlns="http://www.w3.org/2000/svg">
<path d="M19 13.586V10C19 6.783 16.815 4.073 13.855 3.258C13.562 2.52 12.846 2 12 2C11.154 2 10.438 2.52 10.145 3.258C7.185 4.074 5 6.783 5 10V13.586L3.293 15.293C3.105 15.48 3 15.734 3 16V18C3 18.553 3.447 19 4 19H20C20.553 19 21 18.553 21 18V16C21 15.734 20.895 15.48 20.707 15.293L19 13.586ZM19 17H5V16.414L6.707 14.707C6.895 14.52 7 14.266 7 14V10C7 7.243 9.243 5 12 5C14.757 5 17 7.243 17 10V14C17 14.266 17.105 14.52 17.293 14.707L19 16.414V17ZM12 22C13.311 22 14.407 21.166 14.818 20H9.182C9.593 21.166 10.689 22 12 22Z" fill="#484848"/>
</svg>
