<?xml version="1.0" encoding="UTF-8"?>
<svg xmlns="http://www.w3.org/2000/svg" xmlns:xlink="http://www.w3.org/1999/xlink" width="40px" height="40px" viewBox="0 0 40 40" version="1.1">
<g id="surface1">
<path style=" stroke:none;fill-rule:nonzero;fill:rgb(100%,100%,100%);fill-opacity:1;" d="M 31.320312 13.039062 C 30.320312 13.03125 29.363281 13.339844 28.484375 13.902344 L 23.734375 1.15625 C 23.605469 0.800781 23.421875 0.511719 23.203125 0.308594 C 22.984375 0.105469 22.738281 0 22.488281 0 L 18.578125 0 C 18.039062 0 17.601562 0.730469 17.601562 1.628906 L 17.601562 3.257812 C 17.601562 4.160156 18.039062 4.890625 18.578125 4.890625 L 21.675781 4.890625 L 22.585938 7.332031 L 15.644531 7.332031 L 15.644531 5.703125 C 15.644531 4.804688 15.207031 4.074219 14.667969 4.074219 L 9.324219 4.074219 C 8.5 4.074219 7.808594 5.195312 7.824219 6.5625 C 7.835938 7.890625 8.488281 8.964844 9.289062 8.964844 L 12.265625 8.964844 L 10.46875 13.804688 C 9.648438 13.3125 8.765625 13.042969 7.84375 13.039062 C 3.550781 13.019531 0.0234375 18.84375 0 25.996094 C -0.0234375 33.234375 3.488281 39.113281 7.824219 39.113281 C 11.46875 39.113281 14.53125 34.957031 15.398438 29.335938 L 18.578125 29.335938 C 18.828125 29.335938 19.074219 29.226562 19.292969 29.027344 C 19.511719 28.824219 19.695312 28.53125 19.824219 28.175781 L 25.078125 14.03125 L 25.992188 16.484375 C 24.4375 18.871094 23.464844 22.296875 23.46875 26.101562 C 23.476562 33.113281 27.007812 39.042969 31.214844 39.113281 C 35.527344 39.183594 39.046875 33.429688 39.113281 26.277344 C 39.179688 19.054688 35.65625 13.066406 31.320312 13.039062 Z M 11.414062 20.550781 C 12.007812 21.625 12.433594 22.960938 12.613281 24.445312 L 9.96875 24.445312 Z M 7.824219 34.222656 C 5.125 34.222656 2.933594 30.570312 2.933594 26.074219 C 2.933594 21.582031 5.125 17.925781 7.824219 17.925781 C 8.179688 17.925781 8.53125 17.992188 8.867188 18.117188 L 6.085938 25.601562 C 5.484375 27.230469 6.1875 29.335938 7.332031 29.335938 L 12.300781 29.335938 C 11.546875 32.210938 9.824219 34.222656 7.824219 34.222656 Z M 17.761719 24.445312 L 15.585938 24.445312 C 15.34375 21.210938 14.390625 18.34375 12.996094 16.292969 L 14.507812 12.222656 L 22.300781 12.222656 Z M 31.027344 34.210938 C 28.519531 33.992188 26.5 30.578125 26.40625 26.394531 C 26.355469 24.242188 26.808594 22.265625 27.585938 20.765625 L 30.300781 28.058594 C 30.585938 28.820312 31.191406 29.058594 31.648438 28.582031 L 32.480469 27.722656 C 32.9375 27.246094 33.078125 26.242188 32.792969 25.480469 L 30.078125 18.179688 C 30.472656 18.011719 30.882812 17.925781 31.289062 17.925781 C 33.988281 17.925781 36.179688 21.582031 36.179688 26.074219 C 36.179688 30.714844 33.84375 34.460938 31.027344 34.210938 Z M 31.027344 34.210938 "/>
</g>
</svg>
