<?xml version="1.0" encoding="UTF-8"?>
<svg xmlns="http://www.w3.org/2000/svg" xmlns:xlink="http://www.w3.org/1999/xlink" width="40px" height="40px" viewBox="0 0 40 40" version="1.1">
<g id="surface1">
<path style=" stroke:none;fill-rule:nonzero;fill:rgb(100%,100%,100%);fill-opacity:1;" d="M 31.332031 13.257812 C 30.421875 13.25 29.554688 13.496094 28.742188 13.972656 L 26.734375 8.285156 L 31.765625 8.285156 C 32.578125 8.285156 33.234375 7.179688 33.234375 5.800781 L 33.234375 2.484375 C 33.234375 1.109375 32.578125 0 31.765625 0 L 29 0 C 28.585938 0 28.1875 0.300781 27.914062 0.816406 L 25.621094 5.136719 L 24.230469 1.203125 C 23.960938 0.457031 23.484375 0 22.972656 0 L 18.082031 0 C 17.546875 0 17.105469 0.746094 17.105469 1.65625 L 17.105469 3.316406 C 17.105469 4.226562 17.546875 4.972656 18.082031 4.972656 L 22.140625 4.972656 L 23.3125 8.285156 L 13.921875 8.285156 C 12.84375 5.894531 11.179688 4.144531 7.820312 4.144531 L 4.429688 4.144531 C 3.605469 4.144531 2.914062 5.28125 2.933594 6.679688 C 2.945312 8.027344 3.601562 9.117188 4.398438 9.117188 L 7.820312 9.117188 C 9.316406 9.117188 10.183594 10.246094 10.742188 11.683594 L 10.050781 13.808594 C 9.257812 13.402344 8.40625 13.21875 7.527344 13.269531 C 3.417969 13.519531 0.101562 19.226562 0.00390625 26.207031 C -0.0976562 33.675781 3.441406 39.777344 7.820312 39.777344 C 11.460938 39.777344 14.523438 35.550781 15.394531 29.832031 L 20.539062 29.832031 C 21.375 29.832031 22.042969 28.652344 22.003906 27.230469 C 21.878906 22.351562 23.074219 17.527344 25.4375 14.285156 L 26.203125 16.4375 C 24.515625 18.894531 23.449219 22.539062 23.464844 26.609375 C 23.496094 33.820312 26.960938 39.714844 31.210938 39.777344 C 35.585938 39.847656 39.140625 33.820312 39.105469 26.402344 C 39.0625 19.195312 35.585938 13.308594 31.332031 13.257812 Z M 7.820312 34.804688 C 5.128906 34.804688 2.933594 31.085938 2.933594 26.515625 C 2.933594 21.949219 5.128906 18.230469 7.820312 18.230469 C 8.078125 18.230469 8.335938 18.261719 8.585938 18.335938 L 6.050781 26.144531 C 5.511719 27.800781 6.21875 29.832031 7.332031 29.832031 L 12.300781 29.832031 C 11.542969 32.753906 9.820312 34.804688 7.820312 34.804688 Z M 36.160156 26.972656 C 36.023438 31.179688 34.023438 34.574219 31.546875 34.792969 C 28.730469 35.050781 26.390625 31.242188 26.390625 26.515625 C 26.390625 24.300781 26.90625 22.292969 27.742188 20.808594 L 30.757812 29.34375 C 31.035156 30.132812 31.640625 30.382812 32.101562 29.914062 L 32.941406 29.066406 C 33.40625 28.597656 33.550781 27.574219 33.277344 26.785156 L 30.308594 18.40625 C 30.625 18.292969 30.949219 18.242188 31.277344 18.242188 C 34.0625 18.230469 36.304688 22.199219 36.160156 26.972656 Z M 36.160156 26.972656 "/>
</g>
</svg>
