<svg width="32" height="32" viewBox="0 0 32 32" fill="none" xmlns="http://www.w3.org/2000/svg">
<path d="M25.9292 7.12667C25.3692 5.256 23.6812 4 21.7198 4C19.4305 4 17.5465 5.76133 17.3505 8H14.6505C14.4532 5.76133 12.5678 4 10.2718 4C8.3185 4 6.6305 5.256 6.0705 7.12667L2.7225 18.284C2.6865 18.408 2.6665 18.536 2.6665 18.6667V20C2.66784 23.6773 5.65717 26.6667 9.3345 26.6667C12.0612 26.6667 14.4038 25.0173 15.4358 22.6667H16.5638C17.5958 25.0173 19.9385 26.6667 22.6652 26.6667C26.3425 26.6667 29.3332 23.676 29.3332 19.9987V18.6667C29.3332 18.536 29.3132 18.408 29.2772 18.284L25.9292 7.12667ZM9.3345 24C7.12917 24 5.33317 22.204 5.33317 20C5.33317 19.8987 5.35584 19.804 5.3625 19.704C5.4785 18.1507 6.46917 16.8427 7.85717 16.288C8.3145 16.1067 8.8105 16 9.33317 16C11.5412 16 13.3332 17.7907 13.3332 20V20.012C13.3252 22.2107 11.5358 24 9.3345 24ZM22.6652 24C20.4638 24 18.6745 22.2107 18.6665 20.012V20C18.6665 17.7907 20.4585 16 22.6665 16C23.2172 16 23.7438 16.112 24.2212 16.3133C25.6558 16.9213 26.6665 18.3453 26.6665 19.9987C26.6665 22.204 24.8705 24 22.6652 24Z" fill="#FCFCFC"/>
</svg>
