<svg width="32" height="32" viewBox="0 0 32 32" fill="none" xmlns="http://www.w3.org/2000/svg">
<path d="M22.6625 19.9998C20.5278 19.9998 19.4012 19.0985 18.4958 18.3745C17.7398 17.7705 17.1932 17.3332 15.9918 17.3332C14.7945 17.3332 14.2758 17.7478 13.4932 18.3732C12.5878 19.0985 11.4612 19.9998 9.3265 19.9998C7.19184 19.9998 6.06784 19.0985 5.1625 18.3732C4.37984 17.7478 3.8625 17.3332 2.6665 17.3332V23.9998C2.6665 25.4705 3.8625 26.6665 5.33317 26.6665H26.6665C28.1372 26.6665 29.3332 25.4705 29.3332 23.9998V17.3332C28.1345 17.3332 27.6158 17.7478 26.8318 18.3745C25.9252 19.0985 24.7985 19.9998 22.6625 19.9998ZM25.3332 6.6665H17.3332V2.6665H14.6665V6.6665H6.6665C4.46117 6.6665 2.6665 8.46117 2.6665 10.6665V14.6665C4.79984 14.6665 5.92384 15.5678 6.82917 16.2932C7.61184 16.9185 8.12917 17.3332 9.3265 17.3332C10.5252 17.3332 11.0425 16.9185 11.8265 16.2918C12.7318 15.5678 13.8585 14.6665 15.9918 14.6665C18.1278 14.6665 19.2545 15.5678 20.1612 16.2918C20.9452 16.9185 21.4638 17.3332 22.6625 17.3332C23.8625 17.3332 24.4105 16.8958 25.1665 16.2918C26.0718 15.5678 27.1985 14.6665 29.3332 14.6665V10.6665C29.3332 8.46117 27.5385 6.6665 25.3332 6.6665Z" fill="#B1C7FF"/>
</svg>
