<svg width="24" height="24" viewBox="0 0 24 24" fill="none" xmlns="http://www.w3.org/2000/svg">
<path d="M18.8518 5.14803C18.8098 4.35503 18.4978 3.57203 17.8918 2.96503C16.5898 1.66303 14.4798 1.66303 13.1788 2.96503C11.8768 4.26703 11.8768 6.37703 13.1788 7.67903L7.67976 13.179C6.37776 11.877 4.26776 11.877 2.96576 13.179C1.66376 14.48 1.66376 16.59 2.96576 17.892C3.57176 18.498 4.35576 18.81 5.14876 18.852C5.19076 19.645 5.50276 20.428 6.10876 21.035C7.41076 22.337 9.52076 22.337 10.8218 21.035C12.1238 19.733 12.1238 17.623 10.8218 16.321L16.3208 10.822C17.6228 12.124 19.7328 12.124 21.0348 10.822C22.3368 9.52103 22.3368 7.41103 21.0348 6.10903C20.4278 5.50203 19.6448 5.19003 18.8518 5.14803Z" fill="#484848"/>
</svg>
