<svg width="32" height="32" viewBox="0 0 32 32" fill="none" xmlns="http://www.w3.org/2000/svg">
<path d="M6.66642 29.3334H25.3331C26.8038 29.3334 27.9998 28.1374 27.9998 26.6667V8.00008C27.9998 6.52941 26.8038 5.33341 25.3331 5.33341H22.6664V2.66675H19.9998V5.33341H11.9998V2.66675H9.33309V5.33341H6.66642C5.19576 5.33341 3.99976 6.52941 3.99976 8.00008V26.6667C3.99976 28.1374 5.19576 29.3334 6.66642 29.3334ZM14.6664 24.5521L9.72376 19.6094L11.6091 17.7241L14.6664 20.7814L20.3904 15.0574L22.2758 16.9427L14.6664 24.5521ZM6.66642 9.33341H25.3331V12.0001H6.66642V9.33341Z" fill="#FCFCFC"/>
</svg>
