<svg width="32" height="32" viewBox="0 0 32 32" fill="none" xmlns="http://www.w3.org/2000/svg">
<path d="M27.6961 13.5399L25.8721 8.06792C25.3267 6.43192 23.8027 5.33325 22.0787 5.33325H9.92141C8.19741 5.33325 6.67342 6.43192 6.12808 8.06792L4.30408 13.5399C3.34275 13.9426 2.66675 14.8919 2.66675 15.9999V22.6666C2.66675 23.6506 3.20541 24.5013 4.00008 24.9639V26.5293V27.9999C4.00008 28.7373 4.59608 29.3333 5.33341 29.3333H6.66675C7.40408 29.3333 8.00008 28.7373 8.00008 27.9999V25.3333H24.0001V27.9999C24.0001 28.7373 24.5961 29.3333 25.3334 29.3333H26.6667C27.4041 29.3333 28.0001 28.7373 28.0001 27.9999V24.9639C28.7947 24.5013 29.3334 23.6519 29.3334 22.6666V15.9999C29.3334 14.8919 28.6574 13.9426 27.6961 13.5399ZM9.92141 7.99992H22.0774C22.6521 7.99992 23.1614 8.36525 23.3427 8.91192L24.8174 13.3333H23.7587H8.24142H7.18275L8.65608 8.91192C8.83875 8.36525 9.34808 7.99992 9.92141 7.99992ZM7.33342 21.3333C6.22941 21.3333 5.33341 20.4373 5.33341 19.3333C5.33341 18.2293 6.22941 17.3333 7.33342 17.3333C8.43742 17.3333 9.33342 18.2293 9.33342 19.3333C9.33342 20.4373 8.43742 21.3333 7.33342 21.3333ZM24.6667 21.3333C23.5627 21.3333 22.6667 20.4373 22.6667 19.3333C22.6667 18.2293 23.5627 17.3333 24.6667 17.3333C25.7707 17.3333 26.6667 18.2293 26.6667 19.3333C26.6667 20.4373 25.7707 21.3333 24.6667 21.3333Z" fill="white"/>
</svg>
