<svg width="62" height="62" viewBox="0 0 62 62" fill="none" xmlns="http://www.w3.org/2000/svg">
<path d="M53.661 26.2364L50.127 15.6318C49.0704 12.462 46.1177 10.3334 42.7774 10.3334H19.2226C15.8824 10.3334 12.9296 12.462 11.873 15.6318L8.33902 26.2364C6.47902 27.0191 5.16669 28.8585 5.16669 31V43.9167C5.16669 45.862 6.25944 47.5385 7.85077 48.4195C7.81719 48.59 7.75002 48.745 7.75002 48.9232V54.25C7.75002 55.6786 8.90477 56.8334 10.3334 56.8334H12.9167C14.3453 56.8334 15.5 55.6786 15.5 54.25V49.0834H46.5V54.25C46.5 55.6786 47.6548 56.8334 49.0834 56.8334H51.6667C53.0953 56.8334 54.25 55.6786 54.25 54.25V48.9232C54.25 48.745 54.1829 48.5874 54.1493 48.4195C55.7406 47.5385 56.8334 45.862 56.8334 43.9167V31C56.8334 28.8585 55.521 27.0191 53.661 26.2364ZM10.3334 43.9167V31H51.6667L51.6719 43.9167H10.3334ZM19.2226 15.5H42.7749C43.8883 15.5 44.8751 16.2079 45.2264 17.267L48.0836 25.8334H13.9164L16.771 17.267C17.1249 16.2079 18.1118 15.5 19.2226 15.5Z" fill="#F9F9F9"/>
<path d="M16.7917 41.3334C18.9318 41.3334 20.6667 39.5985 20.6667 37.4584C20.6667 35.3183 18.9318 33.5834 16.7917 33.5834C14.6516 33.5834 12.9167 35.3183 12.9167 37.4584C12.9167 39.5985 14.6516 41.3334 16.7917 41.3334Z" fill="#F9F9F9"/>
<path d="M45.2083 41.3334C47.3484 41.3334 49.0833 39.5985 49.0833 37.4584C49.0833 35.3183 47.3484 33.5834 45.2083 33.5834C43.0682 33.5834 41.3333 35.3183 41.3333 37.4584C41.3333 39.5985 43.0682 41.3334 45.2083 41.3334Z" fill="#F9F9F9"/>
</svg>
