<svg width="25" height="25" viewBox="0 0 25 25" fill="none" xmlns="http://www.w3.org/2000/svg">
<path d="M20.5 4.11841H4.5C3.397 4.11841 2.5 5.01541 2.5 6.11841V18.1184C2.5 19.2214 3.397 20.1184 4.5 20.1184H20.5C21.603 20.1184 22.5 19.2214 22.5 18.1184V6.11841C22.5 5.01541 21.603 4.11841 20.5 4.11841ZM13 16.1184C11.619 16.1184 10.5 14.9994 10.5 13.6184C10.5 12.2374 11.619 11.1184 13 11.1184C13.565 11.1184 14.081 11.3124 14.5 11.6304C13.896 12.0864 13.5 12.8034 13.5 13.6184C13.5 14.4334 13.896 15.1504 14.5 15.6064C14.081 15.9244 13.565 16.1184 13 16.1184ZM17 16.1184C15.619 16.1184 14.5 14.9994 14.5 13.6184C14.5 12.2374 15.619 11.1184 17 11.1184C18.381 11.1184 19.5 12.2374 19.5 13.6184C19.5 14.9994 18.381 16.1184 17 16.1184Z" fill="#5F8BFF"/>
</svg>
