<svg width="54" height="50" viewBox="0 0 54 50" fill="none" xmlns="http://www.w3.org/2000/svg">
<path d="M42.4462 12.0788L35.8349 2.51043C35.3448 1.80274 34.6935 1.22224 33.9349 0.817026C33.1763 0.411812 32.3322 0.193554 31.4727 0.180339L18.9259 0H18.9C12.4224 0 7.45234 1.08553 4.25138 6.38332C1.27125 11.3147 0 19.715 0 34.4712V36.2746H4.11266L1.4652 49.8H5.13382L7.78129 36.2746H9C11.9398 36.3009 14.772 35.1676 16.8849 33.1196C18.795 31.2884 20.1728 28.7833 20.8695 25.8751L20.8758 25.849L23.9632 11.0272H20.2855L17.3629 25.0584C16.4728 28.7418 13.8112 32.6678 9 32.6678H3.60675C3.70451 19.9014 4.86473 12.3325 7.33106 8.25061C9.40106 4.82418 12.4268 3.6079 18.8875 3.60621L31.4209 3.78655C31.7074 3.79092 31.9888 3.86366 32.2417 3.99873C32.4946 4.1338 32.7117 4.32733 32.875 4.56325L40.3538 15.3857L50.4 17.0633V18.9748L48.7246 27.9265C48.2302 30.5686 47.385 31.8995 43.9189 32.3166L29.7095 34.7522L29.6155 49.8H33.2155L33.2905 37.797L44.3943 35.8922C46.9098 35.5823 48.7657 34.7701 50.0672 33.4099C51.1798 32.2469 51.857 30.7612 52.2631 28.5913L54 19.31V14.0079L42.4462 12.0788Z" fill="#F9F9F9"/>
</svg>
