<?xml version="1.0" encoding="iso-8859-1"?>
<!-- Generator: Adobe Illustrator 18.1.1, SVG Export Plug-In . SVG Version: 6.00 Build 0)  -->
<svg version="1.1" id="Capa_1" xmlns="http://www.w3.org/2000/svg" xmlns:xlink="http://www.w3.org/1999/xlink" x="0px" y="0px"
	 viewBox="0 0 54.334 54.334" style="enable-background:new 0 0 54.334 54.334;" xml:space="preserve">
<g>
	<g>
		<path style="fill:#010002;" d="M27.167,54.333C12.188,54.333,0,42.147,0,27.167S12.188,0.001,27.167,0.001
			s27.167,12.187,27.167,27.166S42.147,54.333,27.167,54.333z M27.167,7.001C16.047,7.001,7,16.048,7,27.167
			c0,11.12,9.047,20.167,20.167,20.167s20.167-9.047,20.167-20.167C47.334,16.048,38.287,7.001,27.167,7.001z"/>
	</g>
	<g>
		<path style="fill:#010002;" d="M29.576,12.205c0,0,0,0.123,0,0.274s0.89,0.392,1.959,0.671c1.339,0.349,2.575,0.843,3.721,1.483
			c0.744,0.431,1.41,1.175,1.41,2.35c0,1.489-1.175,2.625-2.664,2.625c-0.47,0-0.939-0.118-1.37-0.353
			c-0.531-0.284-1.061-0.541-1.587-0.761c-0.897-0.376-1.665,0.324-1.665,1.429v1.954c0,1.105,0.87,2.222,1.913,2.586
			c4.591,1.602,6.587,3.951,6.587,7.835c0,3.776-2.495,6.391-6.337,7.396c-1.069,0.28-1.966,0.824-1.966,1.398v1.038
			c0,1.136-0.901,2.036-2.037,2.036s-2.036-0.9-2.036-2.036c0,0,0-0.474,0-1.058s-0.893-1.16-1.967-1.416
			c-2.052-0.488-3.991-1.311-5.75-2.384c-0.822-0.509-1.332-1.292-1.332-2.35c0-1.528,1.176-2.664,2.703-2.664
			c0.509,0,1.058,0.196,1.527,0.51c1.039,0.667,2.046,1.21,3.101,1.618c1.03,0.399,1.912-0.32,1.912-1.425v-2.229
			c0-1.105-0.868-2.222-1.913-2.582c-4.357-1.5-6.508-3.661-6.508-7.761c0-3.707,2.435-6.37,6.259-7.366
			c1.069-0.278,1.967-0.456,1.967-0.586v-0.235c0-1.136,0.9-2.037,2.036-2.037C28.675,10.165,29.576,11.069,29.576,12.205z
			 M25.698,20.859v-1.288c0-1.105-0.977-1.981-1.853-1.308c-0.581,0.446-0.849,1.059-0.849,1.776c0,0.767,0.219,1.378,0.923,1.921
			C24.794,22.635,25.698,21.964,25.698,20.859z M29.38,31.714v1.444c0,1.105,0.97,1.976,1.865,1.329
			c0.608-0.44,0.916-1.068,0.916-1.875c0-0.817-0.266-1.462-0.997-2.014C30.283,29.932,29.38,30.609,29.38,31.714z"/>
	</g>
</g>
<g>
</g>
<g>
</g>
<g>
</g>
<g>
</g>
<g>
</g>
<g>
</g>
<g>
</g>
<g>
</g>
<g>
</g>
<g>
</g>
<g>
</g>
<g>
</g>
<g>
</g>
<g>
</g>
<g>
</g>
</svg>
