<svg width="32" height="32" viewBox="0 0 32 32" fill="none" xmlns="http://www.w3.org/2000/svg">
<path d="M26.6429 15.7363C26.5528 15.2323 26.2126 14.831 25.7682 14.7083L17.6375 12.4204L20.6444 4.52582C20.8601 3.96183 20.7049 3.30451 20.2687 2.93651C19.8314 2.56452 19.2269 2.57918 18.8061 2.96851L5.76863 14.9683C5.42135 15.2883 5.26372 15.8003 5.36209 16.2923C5.45928 16.7843 5.79589 17.1723 6.23086 17.2936L14.1944 19.5349L10.2298 27.3401C9.95129 27.8894 10.0532 28.5828 10.474 29.0014C10.6968 29.2214 10.9777 29.3334 11.2586 29.3334C11.5087 29.3334 11.7588 29.2454 11.9697 29.0668L26.1925 17.0669C26.5575 16.7576 26.7341 16.2416 26.6429 15.7363Z" fill="white"/>
</svg>
