<svg width="32" height="32" viewBox="0 0 32 32" fill="none" xmlns="http://www.w3.org/2000/svg">
<path d="M10.6667 24H12C12.3778 24 12.6947 23.872 12.9507 23.616C13.2058 23.3609 13.3333 23.0444 13.3333 22.6667V18.6667C13.7111 18.6667 14.028 18.5387 14.284 18.2827C14.5391 18.0276 14.6667 17.7111 14.6667 17.3333V15.3333C14.6667 14.6 14.4058 13.972 13.884 13.4493C13.3613 12.9276 12.7333 12.6667 12 12.6667H10.6667C9.93333 12.6667 9.30578 12.9276 8.784 13.4493C8.26133 13.972 8 14.6 8 15.3333V17.3333C8 17.7111 8.12756 18.0276 8.38267 18.2827C8.63867 18.5387 8.95556 18.6667 9.33333 18.6667V22.6667C9.33333 23.0444 9.46089 23.3609 9.716 23.616C9.972 23.872 10.2889 24 10.6667 24ZM11.3333 11.3333C11.8 11.3333 12.1942 11.172 12.516 10.8493C12.8387 10.5276 13 10.1333 13 9.66667C13 9.2 12.8387 8.80533 12.516 8.48267C12.1942 8.16089 11.8 8 11.3333 8C10.8667 8 10.4724 8.16089 10.1507 8.48267C9.828 8.80533 9.66667 9.2 9.66667 9.66667C9.66667 10.1333 9.828 10.5276 10.1507 10.8493C10.4724 11.172 10.8667 11.3333 11.3333 11.3333ZM18.5333 14.6667H22.8C23.0667 14.6667 23.2613 14.5556 23.384 14.3333C23.5058 14.1111 23.5 13.8778 23.3667 13.6333L21.2333 10.2333C21.1889 10.1667 21 10.0667 20.6667 9.93333C20.5556 9.93333 20.4498 9.95556 20.3493 10C20.2498 10.0444 20.1667 10.1222 20.1 10.2333L17.9667 13.6333C17.8333 13.8778 17.828 14.1111 17.9507 14.3333C18.0724 14.5556 18.2667 14.6667 18.5333 14.6667ZM20.6667 22.0667C20.7778 22.0667 20.8836 22.0444 20.984 22C21.0836 21.9556 21.1667 21.8778 21.2333 21.7667L23.3667 18.3667C23.5 18.1222 23.5058 17.8889 23.384 17.6667C23.2613 17.4444 23.0667 17.3333 22.8 17.3333H18.5333C18.2667 17.3333 18.0724 17.4444 17.9507 17.6667C17.828 17.8889 17.8333 18.1222 17.9667 18.3667L20.1 21.7667C20.1444 21.8333 20.3333 21.9333 20.6667 22.0667ZM6.66667 28C5.93333 28 5.30533 27.7391 4.78267 27.2173C4.26089 26.6947 4 26.0667 4 25.3333V6.66667C4 5.93333 4.26089 5.30533 4.78267 4.78267C5.30533 4.26089 5.93333 4 6.66667 4H25.3333C26.0667 4 26.6947 4.26089 27.2173 4.78267C27.7391 5.30533 28 5.93333 28 6.66667V25.3333C28 26.0667 27.7391 26.6947 27.2173 27.2173C26.6947 27.7391 26.0667 28 25.3333 28H6.66667Z" fill="white"/>
</svg>
