<svg width="68" height="68" viewBox="0 0 68 68" fill="none" xmlns="http://www.w3.org/2000/svg">
<path d="M22.6667 51H25.5C26.3028 51 26.9762 50.728 27.5202 50.184C28.0623 49.6419 28.3333 48.9694 28.3333 48.1667V39.6667C29.1361 39.6667 29.8095 39.3947 30.3535 38.8507C30.8956 38.3086 31.1667 37.6361 31.1667 36.8333V32.5833C31.1667 31.025 30.6123 29.6905 29.5035 28.5798C28.3928 27.4711 27.0583 26.9167 25.5 26.9167H22.6667C21.1083 26.9167 19.7748 27.4711 18.666 28.5798C17.5553 29.6905 17 31.025 17 32.5833V36.8333C17 37.6361 17.2711 38.3086 17.8132 38.8507C18.3572 39.3947 19.0306 39.6667 19.8333 39.6667V48.1667C19.8333 48.9694 20.1044 49.6419 20.6465 50.184C21.1905 50.728 21.8639 51 22.6667 51ZM24.0833 24.0833C25.075 24.0833 25.9127 23.7405 26.5965 23.0548C27.2822 22.3711 27.625 21.5333 27.625 20.5417C27.625 19.55 27.2822 18.7113 26.5965 18.0257C25.9127 17.3419 25.075 17 24.0833 17C23.0917 17 22.2539 17.3419 21.5702 18.0257C20.8845 18.7113 20.5417 19.55 20.5417 20.5417C20.5417 21.5333 20.8845 22.3711 21.5702 23.0548C22.2539 23.7405 23.0917 24.0833 24.0833 24.0833ZM39.3833 31.1667H48.45C49.0167 31.1667 49.4303 30.9306 49.691 30.4583C49.9498 29.9861 49.9375 29.4903 49.6542 28.9708L45.1208 21.7458C45.0264 21.6042 44.625 21.3917 43.9167 21.1083C43.6806 21.1083 43.4558 21.1556 43.2423 21.25C43.0308 21.3444 42.8542 21.5097 42.7125 21.7458L38.1792 28.9708C37.8958 29.4903 37.8845 29.9861 38.1452 30.4583C38.4039 30.9306 38.8167 31.1667 39.3833 31.1667ZM43.9167 46.8917C44.1528 46.8917 44.3776 46.8444 44.591 46.75C44.8026 46.6556 44.9792 46.4903 45.1208 46.2542L49.6542 39.0292C49.9375 38.5097 49.9498 38.0139 49.691 37.5417C49.4303 37.0694 49.0167 36.8333 48.45 36.8333H39.3833C38.8167 36.8333 38.4039 37.0694 38.1452 37.5417C37.8845 38.0139 37.8958 38.5097 38.1792 39.0292L42.7125 46.2542C42.8069 46.3958 43.2083 46.6083 43.9167 46.8917ZM14.1667 59.5C12.6083 59.5 11.2738 58.9456 10.1632 57.8368C9.05439 56.7262 8.5 55.3917 8.5 53.8333V14.1667C8.5 12.6083 9.05439 11.2738 10.1632 10.1632C11.2738 9.05439 12.6083 8.5 14.1667 8.5H53.8333C55.3917 8.5 56.7262 9.05439 57.8368 10.1632C58.9456 11.2738 59.5 12.6083 59.5 14.1667V53.8333C59.5 55.3917 58.9456 56.7262 57.8368 57.8368C56.7262 58.9456 55.3917 59.5 53.8333 59.5H14.1667Z" fill="#F9F9F9"/>
</svg>
