<svg width="32" height="32" viewBox="0 0 32 32" fill="none" xmlns="http://www.w3.org/2000/svg">
<path d="M25.3333 13.3334V9.33341C25.3333 7.86275 24.1373 6.66675 22.6667 6.66675H18.6667C18.6667 4.46141 16.872 2.66675 14.6667 2.66675C12.4613 2.66675 10.6667 4.46141 10.6667 6.66675H6.66667C5.196 6.66675 4 7.86275 4 9.33341V14.6667H5.33333C6.80533 14.6667 8 15.8614 8 17.3334C8 18.8054 6.80533 20.0001 5.33333 20.0001H4V25.3334C4 26.8041 5.196 28.0001 6.66667 28.0001H12V26.6667C12 25.1947 13.1947 24.0001 14.6667 24.0001C16.1387 24.0001 17.3333 25.1947 17.3333 26.6667V28.0001H22.6667C24.1373 28.0001 25.3333 26.8041 25.3333 25.3334V21.3334C27.5387 21.3334 29.3333 19.5387 29.3333 17.3334C29.3333 15.1281 27.5387 13.3334 25.3333 13.3334Z" fill="white"/>
</svg>
