<svg width="32" height="32" viewBox="0 0 32 32" fill="none" xmlns="http://www.w3.org/2000/svg">
<path d="M26.6665 5.33325H5.33317C3.8625 5.33325 2.6665 6.52925 2.6665 7.99992V23.9999C2.6665 25.4706 3.8625 26.6666 5.33317 26.6666H26.6665C28.1372 26.6666 29.3332 25.4706 29.3332 23.9999V7.99992C29.3332 6.52925 28.1372 5.33325 26.6665 5.33325ZM6.6665 11.3333C6.6665 10.9653 6.96517 10.6666 7.33317 10.6666H11.3332C11.7012 10.6666 11.9998 10.9653 11.9998 11.3333V13.9999C11.9998 14.3679 11.7012 14.6666 11.3332 14.6666H7.33317C6.96517 14.6666 6.6665 14.3679 6.6665 13.9999V11.3333ZM14.6665 21.3333H6.6665V18.6666H14.6665V21.3333ZM25.3332 21.3333H17.3332V18.6666H25.3332V21.3333Z" fill="white"/>
</svg>
