<svg width="32" height="32" viewBox="0 0 32 32" fill="none" xmlns="http://www.w3.org/2000/svg">
<path fill-rule="evenodd" clip-rule="evenodd" d="M6 4C5.46957 4 4.96086 4.21071 4.58579 4.58579C4.21071 4.96086 4 5.46957 4 6V26C4 26.5304 4.21071 27.0391 4.58579 27.4142C4.96086 27.7893 5.46957 28 6 28H26C26.5304 28 27.0391 27.7893 27.4142 27.4142C27.7893 27.0391 28 26.5304 28 26V6C28 5.46957 27.7893 4.96086 27.4142 4.58579C27.0391 4.21071 26.5304 4 26 4H6ZM21.3333 10.6667H19.3333V21.3333H21.3333V10.6667ZM22.6667 12.6667H24.6667V15.3333H25.3333V16.6667H24.6667V19.3333H22.6667V12.6667ZM10.6667 21.3333H12.6667V10.6667H10.6667V21.3333ZM9.33333 19.3333H7.33333V16.6667H6.66667V15.3333H7.33333V12.6667H9.33333V19.3333ZM14 16.6667H18V15.3333H14V16.6667Z" fill="white"/>
</svg>
