<svg width="77" height="73" viewBox="0 0 77 73" fill="none" xmlns="http://www.w3.org/2000/svg">
<path d="M19.25 15.2084V33.4584V39.5417V57.7917H28.875V39.5417H48.125V57.7917H57.75V15.2084H48.125V33.4584H28.875V15.2084H19.25ZM9.62502 45.625C9.62502 47.3071 11.0591 48.6667 12.8334 48.6667H16.0417V24.3334H12.8334C11.0591 24.3334 9.62502 25.693 9.62502 27.375V33.4584H6.41669V39.5417H9.62502V45.625ZM67.375 27.375C67.375 25.693 65.9409 24.3334 64.1667 24.3334H60.9584V48.6667H64.1667C65.9409 48.6667 67.375 47.3071 67.375 45.625V39.5417H70.5834V33.4584H67.375V27.375Z" fill="#F9F9F9"/>
</svg>
