<svg width="24" height="24" viewBox="0 0 24 24" fill="none" xmlns="http://www.w3.org/2000/svg">
<path d="M21.7429 12.331L12.7429 3.33103C12.3639 2.90903 11.6359 2.90903 11.2569 3.33103L2.25693 12.331C1.99193 12.624 1.92593 13.046 2.08693 13.407C2.24693 13.768 2.60493 14 2.99993 14H4.99993V21C4.99993 21.552 5.44693 22 5.99993 22H8.99993C9.55293 22 9.99993 21.552 9.99993 21V18H13.9999V21C13.9999 21.552 14.4469 22 14.9999 22H17.9999C18.5529 22 18.9999 21.552 18.9999 21V14H20.9999C21.3949 14 21.7529 13.768 21.9129 13.407C22.0739 13.046 22.0079 12.625 21.7429 12.331Z" fill="#484848"/>
</svg>
