<svg width="32" height="32" viewBox="0 0 32 32" fill="none" xmlns="http://www.w3.org/2000/svg">
<path d="M4.54512 18.545H7.09057V27.4541C7.09057 28.1579 7.66075 28.7268 8.3633 28.7268H23.636C24.3398 28.7268 24.9088 28.1579 24.9088 27.4541V18.545H27.4542C27.9569 18.545 28.4126 18.2497 28.6162 17.7903C28.8211 17.3308 28.7371 16.7937 28.3998 16.4208L16.9453 4.96629C16.4629 4.4292 15.5364 4.4292 15.054 4.96629L3.59948 16.4208C3.26348 16.7937 3.17821 17.3308 3.38184 17.7903C3.58675 18.2497 4.04239 18.545 4.54512 18.545ZM12.1166 18.1428C12.156 18.2637 13.1513 21.0905 15.9997 21.0905C18.8875 21.0905 19.8713 18.1797 19.8815 18.1492L22.2997 18.9396C22.2373 19.1317 20.7126 23.6359 15.9997 23.6359C11.2868 23.6359 9.76202 19.1317 9.69966 18.9408L12.1166 18.1428Z" fill="#B1C7FF"/>
</svg>
