<svg width="24" height="24" viewBox="0 0 24 24" fill="none" xmlns="http://www.w3.org/2000/svg">
<path d="M5.00293 21.9998H9.00293H15.0029H19.0029C20.1059 21.9998 21.0029 21.1028 21.0029 19.9998V10.9998C21.0029 10.7348 20.8979 10.4798 20.7099 10.2928L12.7099 2.29276C12.3189 1.90176 11.6869 1.90176 11.2959 2.29276L3.29593 10.2928C3.10793 10.4798 3.00293 10.7348 3.00293 10.9998V19.9998C3.00293 21.1028 3.89993 21.9998 5.00293 21.9998ZM10.0029 19.9998V14.9998H14.0029V19.9998H10.0029ZM5.00293 11.4138L12.0029 4.41376L19.0029 11.4138L19.0039 19.9998H16.0029V14.9998C16.0029 13.8968 15.1059 12.9998 14.0029 12.9998H10.0029C8.89993 12.9998 8.00293 13.8968 8.00293 14.9998V19.9998H5.00293V11.4138Z" fill="#466FFF"/>
</svg>
