<?xml version="1.0" encoding="UTF-8"?>
<svg xmlns="http://www.w3.org/2000/svg" xmlns:xlink="http://www.w3.org/1999/xlink" width="24px" height="24px" viewBox="0 0 24 24" version="1.1">
<g id="surface1">
<path style=" stroke:none;fill-rule:nonzero;fill:rgb(0%,0%,0%);fill-opacity:1;" d="M 13.5 10.5 L 10.5 10.5 C 10.050781 10.5 9.75 10.199219 9.75 9.75 L 9.75 2.25 C 9.75 0.976562 10.726562 0 12 0 C 13.273438 0 14.25 0.976562 14.25 2.25 L 14.25 9.75 C 14.25 10.199219 13.949219 10.5 13.5 10.5 Z M 13.5 10.5 "/>
<path style=" stroke:none;fill-rule:nonzero;fill:rgb(0%,0%,0%);fill-opacity:1;" d="M 18.523438 15 L 18.300781 13.800781 C 18 12.75 17.101562 12 16.050781 12 L 7.949219 12 C 6.898438 12 6 12.75 5.773438 13.800781 L 5.476562 15 Z M 18.523438 15 "/>
<path style=" stroke:none;fill-rule:nonzero;fill:rgb(0%,0%,0%);fill-opacity:1;" d="M 5.175781 16.5 L 3.75 23.101562 C 3.675781 23.324219 3.75 23.550781 3.898438 23.699219 C 4.050781 23.925781 4.273438 24 4.5 24 L 7.5 24 L 7.5 20.25 C 7.5 19.800781 7.800781 19.5 8.25 19.5 C 8.699219 19.5 9 19.800781 9 20.25 L 9 24 L 15 24 L 15 21.75 C 15 21.300781 15.300781 21 15.75 21 C 16.199219 21 16.5 21.300781 16.5 21.75 L 16.5 24 L 19.5 24 C 19.726562 24 19.949219 23.925781 20.101562 23.699219 C 20.25 23.550781 20.324219 23.324219 20.25 23.101562 L 18.824219 16.5 Z M 5.175781 16.5 "/>
</g>
</svg>
