<svg width="69" height="69" viewBox="0 0 69 69" fill="none" xmlns="http://www.w3.org/2000/svg">
<path d="M40.9688 30.1875H51.75" stroke="#F9F9F9" stroke-width="3.5" stroke-linecap="round" stroke-linejoin="round"/>
<path d="M40.9688 38.8125H51.75" stroke="#F9F9F9" stroke-width="3.5" stroke-linecap="round" stroke-linejoin="round"/>
<path d="M24.824 38.8125C28.3966 38.8125 31.2927 35.9163 31.2927 32.3438C31.2927 28.7712 28.3966 25.875 24.824 25.875C21.2514 25.875 18.3552 28.7712 18.3552 32.3438C18.3552 35.9163 21.2514 38.8125 24.824 38.8125Z" stroke="#F9F9F9" stroke-width="3.5" stroke-linecap="round" stroke-linejoin="round"/>
<path d="M16.4707 45.2811C16.9493 43.4297 18.0294 41.7897 19.5413 40.6188C21.0533 39.4479 22.9113 38.8126 24.8236 38.8125C26.7359 38.8124 28.5941 39.4477 30.1061 40.6184C31.6181 41.7892 32.6983 43.4291 33.177 45.2805" stroke="#F9F9F9" stroke-width="3.5" stroke-linecap="round" stroke-linejoin="round"/>
<path d="M58.2188 12.9375H10.7812C9.59039 12.9375 8.625 13.9029 8.625 15.0938V53.9062C8.625 55.0971 9.59039 56.0625 10.7812 56.0625H58.2188C59.4096 56.0625 60.375 55.0971 60.375 53.9062V15.0938C60.375 13.9029 59.4096 12.9375 58.2188 12.9375Z" stroke="#F9F9F9" stroke-width="3.5" stroke-linecap="round" stroke-linejoin="round"/>
</svg>
