<svg width="24" height="24" viewBox="0 0 24 24" fill="none" xmlns="http://www.w3.org/2000/svg">
<path d="M19.999 4H3.99902C2.89602 4 1.99902 4.897 1.99902 6V18C1.99902 19.103 2.89602 20 3.99902 20H19.999C21.102 20 21.999 19.103 21.999 18V6C21.999 4.897 21.102 4 19.999 4ZM6.49902 7C7.32802 7 7.99902 7.672 7.99902 8.5C7.99902 9.328 7.32802 10 6.49902 10C5.67002 10 4.99902 9.328 4.99902 8.5C4.99902 7.672 5.67002 7 6.49902 7ZM11.999 17H8.99902H4.99902L8.99902 12L10.499 14L13.499 10L18.999 17H11.999Z" fill="#484848"/>
</svg>
