<svg width="32" height="32" viewBox="0 0 32 32" fill="none" xmlns="http://www.w3.org/2000/svg">
<path d="M26.8719 11.352C28.0053 8.63335 28.0799 6.36802 26.7213 5.00935C25.2106 3.50002 21.5853 3.95335 17.7386 5.76268H17.2839C14.5679 5.76268 11.9239 6.74668 9.96127 8.48135C8.3026 9.99202 7.0946 11.9547 6.56527 14.1427C6.9426 13.6934 9.05727 11.2 11.4719 9.84135C11.5493 9.84135 12.1519 9.46402 12.1519 9.46402C12.0759 9.46402 10.9453 10.5974 10.7199 10.824C5.43327 16.2587 2.33993 24.488 4.75593 26.9027C6.33993 28.488 9.20927 28.1107 12.5306 26.3C13.9639 26.98 15.5506 27.28 17.2839 27.28C19.5493 27.28 21.6639 26.676 23.4746 25.468C25.3626 24.26 26.7226 22.376 27.5533 20.1854H21.6653C20.9106 21.6187 19.1733 22.6014 17.3626 22.6014C14.7946 22.6014 12.6799 20.4867 12.6053 18.072V17.8467H28.0066V17.62C28.0066 17.2427 28.0826 16.7894 28.0826 16.4894C28.0813 14.6734 27.6279 12.9374 26.8719 11.352ZM6.4146 26.4507C5.2066 25.2427 5.5866 22.9014 7.0186 20.1094C7.6986 21.9974 8.8306 23.6587 10.2653 24.8654C10.7199 25.2414 11.2453 25.6187 11.7759 25.9214C9.35727 27.2054 7.39593 27.432 6.4146 26.4507ZM21.8893 14.976H12.6799V14.9C12.8306 12.5587 15.0186 10.52 17.5879 10.52C20.0039 10.52 21.9666 12.408 22.1173 14.9V14.976H21.8893ZM26.4946 10.748C26.0233 9.96147 25.4378 9.24927 24.7573 8.63468C23.705 7.65514 22.4748 6.88619 21.1333 6.36935C23.5506 5.23735 25.5879 5.08802 26.6453 6.14402C27.4759 7.12535 27.4013 8.78535 26.4946 10.748C26.4946 10.824 26.4946 10.824 26.4946 10.748C26.4946 10.824 26.4946 10.824 26.4946 10.748Z" fill="white"/>
</svg>
