<?xml version="1.0" encoding="iso-8859-1"?>
<!-- Generator: Adobe Illustrator 19.0.0, SVG Export Plug-In . SVG Version: 6.00 Build 0)  -->
<svg version="1.1" id="Layer_1" xmlns="http://www.w3.org/2000/svg" xmlns:xlink="http://www.w3.org/1999/xlink" x="0px" y="0px"
	 viewBox="0 0 511.994 511.994" style="enable-background:new 0 0 511.994 511.994;" xml:space="preserve">
<g>
	<g>
		<g>
			<polygon points="355.812,362.846 511.994,479.987 511.994,248.307 			"/>
			<polygon points="199.217,383.991 31.836,511.991 483.569,511.991 312.902,383.991 			"/>
			<polygon points="0,245.321 0,482.633 156.672,362.825 			"/>
			<path d="M313.003,341.325l180.843-132.608L270.357,5.538c-8.128-7.381-20.587-7.381-28.715,0L20.032,207.01l179.072,134.315
				H313.003z M362.667,213.325H384c11.797,0,21.333,9.557,21.333,21.333s-9.536,21.333-21.333,21.333h-21.333
				c-11.797,0-21.333-9.557-21.333-21.333S350.869,213.325,362.667,213.325z M256,213.325h21.333
				c11.797,0,21.333,9.557,21.333,21.333s-9.536,21.333-21.333,21.333H256c-11.797,0-21.333-9.557-21.333-21.333
				S244.203,213.325,256,213.325z M170.667,255.991h-21.333c-11.797,0-21.333-9.557-21.333-21.333s9.536-21.333,21.333-21.333
				h21.333c11.797,0,21.333,9.557,21.333,21.333S182.464,255.991,170.667,255.991z"/>
		</g>
	</g>
</g>
<g>
</g>
<g>
</g>
<g>
</g>
<g>
</g>
<g>
</g>
<g>
</g>
<g>
</g>
<g>
</g>
<g>
</g>
<g>
</g>
<g>
</g>
<g>
</g>
<g>
</g>
<g>
</g>
<g>
</g>
</svg>
