<svg width="32" height="32" viewBox="0 0 32 32" fill="none" xmlns="http://www.w3.org/2000/svg">
<path d="M5.99984 11.4025C5.99984 14.0625 8.0065 16.0692 10.6665 16.0692C13.3265 16.0692 15.3332 14.0625 15.3332 11.4025C15.3332 8.74251 13.3265 6.73584 10.6665 6.73584C8.0065 6.73584 5.99984 8.74251 5.99984 11.4025ZM25.3332 10.6665H22.6665V14.6665H18.6665V17.3332H22.6665V21.3332H25.3332V17.3332H29.3332V14.6665H25.3332V10.6665ZM5.33317 25.3332H15.9998H17.3332H18.6665V23.9998C18.6665 20.3238 15.6758 17.3332 11.9998 17.3332H9.33317C5.65717 17.3332 2.6665 20.3238 2.6665 23.9998V25.3332H3.99984H5.33317Z" fill="#B1C7FF"/>
</svg>
