<svg width="37" height="37" viewBox="0 0 37 37" fill="none" xmlns="http://www.w3.org/2000/svg">
<path d="M33.5124 12.1143C33.5078 12.0046 33.4972 11.8934 33.4682 11.7882C33.4575 11.7501 33.4362 11.7136 33.4225 11.6755C33.3905 11.5886 33.3615 11.5033 33.3158 11.4241C33.2914 11.3829 33.2579 11.3494 33.229 11.3098C33.1802 11.2412 33.133 11.1711 33.0735 11.1117C33.0385 11.0781 32.9928 11.0507 32.9547 11.0187C32.8953 10.97 32.8404 10.9166 32.7718 10.8755C32.7657 10.8709 32.7581 10.8709 32.7505 10.8663C32.7459 10.8648 32.7429 10.8602 32.7383 10.8572L19.056 3.25339C18.5974 2.99739 18.0396 2.99891 17.5779 3.25186L3.83164 10.8557C3.82707 10.8602 3.82249 10.8663 3.81487 10.8709C3.8103 10.8724 3.80421 10.874 3.79964 10.877C3.7463 10.9075 3.70668 10.9517 3.6564 10.9882C3.60154 11.0294 3.54364 11.066 3.49487 11.1132C3.44916 11.1604 3.41411 11.2153 3.37449 11.2686C3.33335 11.322 3.28764 11.3692 3.25411 11.4271C3.21449 11.4926 3.19316 11.5673 3.16421 11.6389C3.14287 11.6892 3.11545 11.7364 3.10173 11.7913C3.07278 11.8934 3.06364 12.0031 3.05754 12.1113C3.05602 12.1372 3.04688 12.1601 3.04688 12.1875V12.189V12.1905V24.381C3.04688 24.9341 3.34707 25.4446 3.83164 25.7128L17.5124 33.312L17.5139 33.3136C17.5154 33.3136 17.5154 33.3136 17.517 33.3151L17.5474 33.3319C17.613 33.3684 17.6846 33.3882 17.7532 33.4141C17.8019 33.434 17.8492 33.4599 17.901 33.4736C18.0244 33.5056 18.1554 33.5239 18.285 33.5239C18.4145 33.5239 18.5455 33.5056 18.672 33.4736C18.7223 33.4599 18.7695 33.434 18.8198 33.4141C18.8884 33.3882 18.96 33.37 19.0255 33.3319L19.056 33.3151C19.0575 33.3136 19.0575 33.3136 19.0591 33.3136L19.0606 33.312L32.7414 25.7128C33.2229 25.4446 33.5231 24.9341 33.5231 24.381V12.1905V12.189V12.1875C33.5231 12.1616 33.5139 12.1402 33.5124 12.1143ZM18.2423 18.0907L7.70668 12.1981L11.9154 9.86977L22.3292 15.8202L18.2423 18.0907ZM18.3154 6.32843L28.8617 12.1905L25.4423 14.0907L15.0347 8.14329L18.3154 6.32843ZM19.8088 29.4111L19.8118 20.7574L24.3802 18.2004V22.8572L27.4278 21.3334V16.4953L30.4754 14.7901V23.4835L19.8088 29.4111Z" fill="white"/>
</svg>
