<svg width="32" height="32" viewBox="0 0 32 32" fill="none" xmlns="http://www.w3.org/2000/svg">
<path d="M25.1362 6.86403C25.0802 5.8067 24.6642 4.7627 23.8562 3.95337C22.1202 2.21737 19.3068 2.21737 17.5722 3.95337C15.8362 5.68937 15.8362 8.5027 17.5722 10.2387L10.2402 17.572C8.50417 15.836 5.69083 15.836 3.95483 17.572C2.21883 19.3067 2.21883 22.12 3.95483 23.856C4.76283 24.664 5.80817 25.08 6.8655 25.136C6.9215 26.1934 7.3375 27.2374 8.1455 28.0467C9.8815 29.7827 12.6948 29.7827 14.4295 28.0467C16.1655 26.3107 16.1655 23.4974 14.4295 21.7614L21.7615 14.4294C23.4975 16.1654 26.3108 16.1654 28.0468 14.4294C29.7828 12.6947 29.7828 9.88137 28.0468 8.14537C27.2375 7.33603 26.1935 6.92003 25.1362 6.86403Z" fill="white"/>
</svg>
