<svg width="24" height="24" viewBox="0 0 24 24" fill="none" xmlns="http://www.w3.org/2000/svg">
<path d="M20.0002 10.999H22.0002C22.0002 5.869 18.1272 2 12.9902 2V4C17.0522 4 20.0002 6.943 20.0002 10.999Z" fill="#522ED2"/>
<path d="M13.0003 7.99988C15.1033 7.99988 16.0003 8.89688 16.0003 10.9999H18.0003C18.0003 7.77488 16.2253 5.99988 13.0003 5.99988V7.99988ZM16.4223 13.4429C16.0233 13.0799 15.4073 13.0989 15.0313 13.4859L12.6383 15.9469C12.0623 15.8369 10.9043 15.4759 9.71228 14.2869C8.52028 13.0939 8.15928 11.9329 8.05228 11.3609L10.5113 8.96688C10.8993 8.59088 10.9173 7.97588 10.5543 7.57588L6.85928 3.51288C6.49628 3.11188 5.87928 3.07388 5.46828 3.42588L3.29828 5.28688C3.12528 5.46088 3.02228 5.69088 3.00828 5.93588C2.99328 6.18588 2.70728 12.1079 7.29928 16.7019C11.3053 20.7069 16.3233 20.9999 17.7053 20.9999C17.9073 20.9999 18.0313 20.9939 18.0643 20.9919C18.3093 20.9779 18.5393 20.8749 18.7123 20.7009L20.5723 18.5299C20.9253 18.1189 20.8853 17.5029 20.4863 17.1389L16.4223 13.4429Z" fill="#522ED2"/>
</svg>
