<svg width="24" height="24" viewBox="0 0 24 24" fill="none" xmlns="http://www.w3.org/2000/svg">
<path d="M2.75992 20.2049C3.27692 20.7859 4.01692 21.0459 4.90692 21.0459C5.88192 21.0459 7.03992 20.7269 8.27992 20.1859C9.42392 20.7049 10.6759 20.9969 11.9889 20.9969C13.6079 20.9969 15.2049 20.5539 16.6049 19.7149C18.6699 18.4809 20.1289 16.5229 20.7119 14.1999C21.1239 12.5569 21.0559 10.8709 20.5489 9.29189C21.8589 7.05589 22.3019 5.02889 21.2209 3.81189C20.5599 3.06789 19.6409 2.72089 18.6459 2.82889C17.8149 2.91889 16.9599 3.32989 16.0979 4.01989C14.8549 3.37989 13.4639 3.01989 12.0009 3.01989C10.3829 3.01989 8.78592 3.46289 7.38592 4.30189C5.31892 5.53589 3.86092 7.49489 3.27692 9.8169C2.82792 11.6049 2.94392 13.4469 3.58292 15.1419C2.51792 16.3459 1.52892 18.8189 2.75992 20.2049ZM4.25592 18.8769C4.03892 18.6329 4.25892 17.8069 4.63292 17.1169C5.08492 17.7729 5.61092 18.3539 6.19792 18.8559C5.17392 19.1579 4.48592 19.1389 4.25592 18.8769ZM18.7729 13.7119C18.3199 15.5159 17.1859 17.0369 15.5789 17.9969C14.4879 18.6499 13.2459 18.9959 11.9889 18.9959C11.5669 18.9959 11.1559 18.9459 10.7519 18.8739C12.2389 17.9629 13.7559 16.8339 15.1649 15.5819C16.5759 14.3289 17.8869 12.9559 18.9679 11.5859C19.0119 12.2919 18.9499 13.0079 18.7729 13.7119ZM18.8639 4.81489C19.2199 4.78189 19.4959 4.87889 19.7249 5.13789C19.9559 5.39889 19.8939 6.08389 19.4729 7.06689C19.0119 6.36589 18.4679 5.7479 17.8559 5.2139C18.2869 4.95189 18.6319 4.84089 18.8639 4.81489ZM5.21692 10.3049C5.66992 8.5009 6.80492 6.97889 8.41192 6.01889C9.50292 5.36589 10.7439 5.01989 12.0009 5.01989C14.4739 5.01989 16.7099 6.29289 17.9839 8.42489C18.1139 8.64289 18.2289 8.86489 18.3349 9.09189C17.3639 10.5329 15.9019 12.2519 13.8369 14.0859C11.7739 15.9189 9.89492 17.1679 8.34892 17.9619C7.40992 17.3839 6.59992 16.5859 6.00592 15.5909C5.04392 13.9849 4.76392 12.1069 5.21692 10.3049Z" fill="#466FFF"/>
</svg>
