<svg width="32" height="32" viewBox="0 0 32 32" fill="none" xmlns="http://www.w3.org/2000/svg">
<path d="M26.6665 16V24C26.6665 24.736 26.0692 25.3333 25.3332 25.3333C24.5972 25.3333 23.9998 24.736 23.9998 24V5.33333C23.9998 4.596 23.4038 4 22.6665 4H3.99984C3.2625 4 2.6665 4.596 2.6665 5.33333V24C2.6665 26.2053 4.46117 28 6.6665 28H25.3332C27.5385 28 29.3332 26.2053 29.3332 24V16H26.6665ZM18.6665 14.6667V17.3333H7.99984V14.6667H18.6665ZM7.99984 12V9.33333H18.6665V12H7.99984ZM18.6665 20V22.6667H14.6665V20H18.6665Z" fill="#FCFCFC"/>
</svg>
