<svg width="32" height="32" viewBox="0 0 32 32" fill="none" xmlns="http://www.w3.org/2000/svg">
<path d="M15.9998 2.6665C8.64784 2.6665 2.6665 8.64784 2.6665 15.9998C2.6665 23.3518 8.64784 29.3332 15.9998 29.3332C23.3518 29.3332 29.3332 23.3518 29.3332 15.9998C29.3332 8.64784 23.3518 2.6665 15.9998 2.6665ZM26.3145 13.3332H22.1012C21.4292 11.8012 20.1985 10.5705 18.6665 9.8985V5.68384C22.4052 6.65184 25.3478 9.5945 26.3145 13.3332ZM15.9998 19.9998C13.7945 19.9998 11.9998 18.2052 11.9998 15.9998C11.9998 13.7945 13.7945 11.9998 15.9998 11.9998C18.2052 11.9998 19.9998 13.7945 19.9998 15.9998C19.9998 18.2052 18.2052 19.9998 15.9998 19.9998ZM13.3332 5.68384V9.8985C11.8012 10.5705 10.5705 11.8012 9.8985 13.3332H5.68517C6.65184 9.5945 9.5945 6.65184 13.3332 5.68384ZM5.68517 18.6665H9.8985C10.5705 20.1985 11.8012 21.4292 13.3332 22.1012V26.3158C9.5945 25.3478 6.65184 22.4052 5.68517 18.6665ZM18.6665 26.3158V22.1012C20.1985 21.4292 21.4292 20.1985 22.1012 18.6665H26.3145C25.3478 22.4052 22.4052 25.3478 18.6665 26.3158Z" fill="#B1C7FF"/>
</svg>
