<svg width="28" height="28" viewBox="0 0 28 28" fill="none" xmlns="http://www.w3.org/2000/svg">
<path d="M1.12532 18.3617L3.79199 22.975C4.15999 23.6123 4.97599 23.831 5.61332 23.4617L7.47465 22.387C8.24799 22.9963 9.10265 23.4963 10.0013 23.8697V26.0003C10.0013 26.7363 10.5973 27.3337 11.3347 27.3337H16.668C17.4053 27.3337 18.0013 26.7363 18.0013 26.0003V23.8697C18.9 23.4963 19.7533 22.9963 20.528 22.387L22.3893 23.4617C23.0253 23.8283 23.844 23.6083 24.2107 22.975L26.8773 18.3617C27.244 17.727 27.024 16.907 26.3907 16.5403L24.5613 15.483C24.6307 14.991 24.6667 14.495 24.6667 14.0003C24.6667 13.5057 24.6307 13.0097 24.5587 12.5177L26.388 11.4603C27.0227 11.0937 27.2427 10.2737 26.8747 9.63899L24.208 5.02566C23.84 4.38833 23.024 4.16966 22.3867 4.53899L20.5253 5.61366C19.752 5.00433 18.8987 4.50299 18 4.13099V2.00033C18 1.26433 17.404 0.666992 16.6667 0.666992H11.3333C10.596 0.666992 9.99999 1.26433 9.99999 2.00033V4.13099C9.10132 4.50433 8.24799 5.00433 7.47332 5.61366L5.61332 4.53899C4.97465 4.16966 4.15999 4.38833 3.79199 5.02566L1.12532 9.63899C0.758654 10.2737 0.978654 11.0937 1.61199 11.4603L3.44132 12.5177C3.36932 13.0097 3.33332 13.5057 3.33332 14.0003C3.33332 14.495 3.36932 14.991 3.44132 15.483L1.61199 16.5403C0.97732 16.907 0.75732 17.727 1.12532 18.3617ZM14 8.66699C16.9413 8.66699 19.3333 11.059 19.3333 14.0003C19.3333 16.9417 16.9413 19.3337 14 19.3337C11.0587 19.3337 8.66665 16.9417 8.66665 14.0003C8.66665 11.059 11.0587 8.66699 14 8.66699Z" fill="#B1C7FF"/>
</svg>
