<svg width="24" height="24" viewBox="0 0 24 24" fill="none" xmlns="http://www.w3.org/2000/svg">
<path d="M12.9968 7.05423V4.00023C12.9968 3.59623 13.2398 3.23123 13.6138 3.07623C13.9868 2.92223 14.4178 3.00723 14.7038 3.29323L21.7038 10.2932C22.0948 10.6842 22.0948 11.3162 21.7038 11.7072L14.7038 18.7072C14.4168 18.9942 13.9868 19.0792 13.6138 18.9242C13.2398 18.7692 12.9968 18.4042 12.9968 18.0002V14.9042C12.7128 14.8842 12.4318 14.8752 12.1538 14.8752C6.72782 14.8752 3.91482 18.4472 3.79182 18.6052C3.59982 18.8592 3.30282 19.0002 2.99682 19.0002C2.89082 19.0002 2.78282 18.9832 2.67882 18.9482C2.27182 18.8112 1.99682 18.4302 1.99682 18.0002C1.99682 8.87623 10.0828 7.31923 12.9968 7.05423ZM12.1538 12.8752C12.8008 12.8752 13.4658 12.9202 14.1288 13.0082C14.6258 13.0752 14.9968 13.4992 14.9968 14.0002V15.5862L19.5828 11.0002L14.9968 6.41423V8.00023C14.9968 8.55223 14.5258 9.00023 13.9748 9.00023C13.0648 9.00023 5.86082 9.20123 4.29582 15.4252C5.94982 14.2072 8.57682 12.8752 12.1538 12.8752Z" fill="#A0A3BD"/>
</svg>
