<svg width="32" height="32" viewBox="0 0 32 32" fill="none" xmlns="http://www.w3.org/2000/svg">
<path d="M4 6.66667V25.3333C4 26.8053 5.19467 28 6.66667 28H25.3333C26.8053 28 28 26.8053 28 25.3333V6.66667C28 5.19467 26.8053 4 25.3333 4H6.66667C5.19467 4 4 5.19467 4 6.66667ZM13.3333 9.33333H24V12H13.3333V9.33333ZM13.3333 14.6667H24V17.3333H13.3333V14.6667ZM13.3333 20H24V22.6667H13.3333V20ZM8 9.33333H10.6667V12H8V9.33333ZM8 14.6667H10.6667V17.3333H8V14.6667ZM8 20H10.6667V22.6667H8V20Z" fill="white"/>
</svg>
