<?xml version="1.0" encoding="UTF-8"?>
<svg xmlns="http://www.w3.org/2000/svg" xmlns:xlink="http://www.w3.org/1999/xlink" width="24px" height="24px" viewBox="0 0 24 24" version="1.1">
<g id="surface1">
<path style=" stroke:none;fill-rule:nonzero;fill:rgb(0%,0%,0%);fill-opacity:1;" d="M 22.957031 5.597656 L 23.058594 5.597656 C 23.355469 5.597656 23.617188 5.476562 23.796875 5.257812 C 23.980469 5.03125 24.046875 4.722656 23.980469 4.410156 L 23.492188 2.050781 C 23.367188 1.464844 22.84375 1.003906 22.296875 1.003906 L 1.710938 1.003906 C 1.164062 1.003906 0.636719 1.464844 0.515625 2.050781 L 0.0234375 4.410156 C -0.0390625 4.722656 0.0273438 5.03125 0.210938 5.257812 C 0.386719 5.476562 0.648438 5.597656 0.945312 5.597656 L 1.046875 5.597656 C 0.789062 7 0.527344 8.402344 0.265625 9.804688 L 0.246094 9.917969 C -0.00390625 11.210938 0.597656 12.40625 1.785156 13.019531 L 1.785156 21.542969 C 1.785156 22.347656 2.4375 23.003906 3.242188 23.003906 L 20.765625 23.003906 C 21.566406 23.003906 22.222656 22.347656 22.222656 21.542969 L 22.222656 13.023438 C 23.410156 12.410156 24.011719 11.214844 23.761719 9.917969 Z M 7.75 10.003906 C 7.859375 8.535156 7.96875 7.066406 8.078125 5.597656 L 10.894531 5.597656 C 10.875 7.054688 10.855469 8.515625 10.835938 9.972656 C 10.820312 10.875 9.980469 11.4375 9.207031 11.4375 C 8.78125 11.4375 8.363281 11.257812 8.082031 10.960938 C 7.910156 10.773438 7.714844 10.457031 7.75 10.003906 Z M 3.609375 11.4375 L 3.570312 11.4375 C 3.15625 11.4375 2.761719 11.261719 2.515625 10.96875 C 2.359375 10.785156 2.195312 10.476562 2.269531 10.035156 L 2.996094 5.597656 L 5.832031 5.597656 L 5.390625 9.941406 C 5.296875 10.777344 4.511719 11.433594 3.609375 11.4375 Z M 11.121094 17.078125 C 11.121094 17.386719 10.867188 17.636719 10.558594 17.636719 L 5.734375 17.636719 C 5.425781 17.636719 5.175781 17.386719 5.175781 17.078125 L 5.175781 15.449219 C 5.175781 15.140625 5.425781 14.890625 5.734375 14.890625 L 10.558594 14.890625 C 10.867188 14.890625 11.121094 15.140625 11.121094 15.449219 Z M 13.199219 9.976562 L 13.136719 5.597656 L 15.953125 5.597656 C 16.0625 7.039062 16.171875 8.480469 16.277344 9.921875 L 16.285156 10.003906 C 16.320312 10.457031 16.121094 10.773438 15.949219 10.960938 C 15.671875 11.257812 15.25 11.4375 14.820312 11.4375 C 14.054688 11.4375 13.214844 10.875 13.199219 9.976562 Z M 18.832031 20.257812 C 18.832031 20.566406 18.578125 20.816406 18.269531 20.816406 L 15.269531 20.816406 C 14.960938 20.816406 14.710938 20.566406 14.710938 20.257812 L 14.710938 15.996094 C 14.710938 15.683594 14.960938 15.433594 15.269531 15.433594 L 18.269531 15.433594 C 18.578125 15.433594 18.832031 15.683594 18.832031 15.996094 Z M 21.492188 10.972656 C 21.242188 11.261719 20.851562 11.4375 20.441406 11.4375 L 20.429688 11.4375 C 19.523438 11.429688 18.738281 10.773438 18.644531 9.945312 C 18.496094 8.496094 18.347656 7.046875 18.199219 5.597656 L 21.007812 5.597656 L 21.738281 10.035156 C 21.8125 10.476562 21.644531 10.789062 21.492188 10.972656 Z M 21.492188 10.972656 "/>
</g>
</svg>
