<svg width="70" height="70" viewBox="0 0 70 70" fill="none" xmlns="http://www.w3.org/2000/svg">
<path d="M55.4254 23.345C58.6503 23.345 61.2646 20.7307 61.2646 17.5058C61.2646 14.2809 58.6503 11.6666 55.4254 11.6666C52.2005 11.6666 49.5862 14.2809 49.5862 17.5058C49.5862 20.7307 52.2005 23.345 55.4254 23.345Z" fill="#F9F9F9"/>
<path d="M55.0521 38.5554C53.3983 39.8766 52.1996 40.8333 49.5746 40.8333C46.9525 40.8333 45.8179 39.9262 44.1029 38.5554C42.1196 36.9716 39.655 34.9999 34.9825 34.9999C30.3129 34.9999 27.8512 36.9716 25.8708 38.5554C24.1558 39.9262 23.0271 40.8333 20.4021 40.8333C17.7829 40.8333 16.6512 39.9262 14.9391 38.5583C12.9587 36.9716 10.5 34.9999 5.83331 34.9999V40.8333C8.44956 40.8333 9.58123 41.7404 11.2933 43.1083C13.2737 44.6949 15.7354 46.6666 20.4021 46.6666C25.0687 46.6666 27.5362 44.6949 29.5166 43.1083C31.2287 41.7374 32.3633 40.8333 34.9825 40.8333C37.6075 40.8333 38.8062 41.7899 40.46 43.1112C42.4404 44.6949 44.905 46.6666 49.5746 46.6666C54.2471 46.6666 56.7116 44.6949 58.695 43.1112C60.41 41.7404 61.5446 40.8333 64.1666 40.8333V34.9999C59.4971 34.9999 57.0325 36.9716 55.0521 38.5554ZM49.5746 55.4166C46.9525 55.4166 45.8179 54.5095 44.1029 53.1387C42.1196 51.5549 39.655 49.5833 34.9825 49.5833C30.3129 49.5833 27.8512 51.5549 25.8708 53.1387C24.1558 54.5095 23.0271 55.4166 20.4021 55.4166C17.7829 55.4166 16.6512 54.5095 14.9391 53.1416C12.9587 51.5549 10.5 49.5833 5.83331 49.5833V55.4166C8.44956 55.4166 9.58123 56.3237 11.2933 57.6916C13.2737 59.2783 15.7354 61.2499 20.4021 61.2499C25.0687 61.2499 27.5362 59.2783 29.5166 57.6916C31.2287 56.3208 32.3633 55.4166 34.9825 55.4166C37.6075 55.4166 38.8062 56.3733 40.46 57.6945C42.4404 59.2783 44.905 61.2499 49.5746 61.2499C54.2471 61.2499 56.7116 59.2783 58.695 57.6945C60.41 56.3237 61.5446 55.4166 64.1666 55.4166V49.5833C59.4971 49.5833 57.0325 51.5549 55.0521 53.1387C53.3983 54.4599 52.1996 55.4166 49.5746 55.4166ZM32.0833 15.8054L38.22 21.942L32.2204 29.4379C33.0546 29.2745 33.9587 29.1666 34.9825 29.1666C39.655 29.1666 42.1196 31.1383 44.1029 32.722C45.8179 34.0929 46.9525 34.9999 49.5746 34.9999C52.1996 34.9999 53.3983 34.0433 55.0521 32.722C55.4371 32.4158 55.8512 32.0891 56.2858 31.7712L50.1725 25.6754L50.1871 25.6608L34.1454 9.61911C33.005 8.47869 31.1616 8.47869 30.0212 9.61911L18.3546 21.2858L22.4787 25.4099L32.0833 15.8054Z" fill="#F9F9F9"/>
</svg>
