<svg width="32" height="32" viewBox="0 0 32 32" fill="none" xmlns="http://www.w3.org/2000/svg">
<path d="M3.12523 20.3612L5.7919 24.9745C6.1599 25.6118 6.9759 25.8305 7.61323 25.4612L9.47456 24.3865C10.2479 24.9958 11.1026 25.4958 12.0012 25.8692V27.9998C12.0012 28.7358 12.5972 29.3332 13.3346 29.3332H18.6679C19.4052 29.3332 20.0012 28.7358 20.0012 27.9998V25.8692C20.8999 25.4958 21.7532 24.9958 22.5279 24.3865L24.3892 25.4612C25.0252 25.8278 25.8439 25.6078 26.2106 24.9745L28.8772 20.3612C29.2439 19.7265 29.0239 18.9065 28.3906 18.5398L26.5612 17.4825C26.6306 16.9905 26.6666 16.4945 26.6666 15.9998C26.6666 15.5052 26.6306 15.0092 26.5586 14.5172L28.3879 13.4598C29.0226 13.0932 29.2426 12.2732 28.8746 11.6385L26.2079 7.02517C25.8399 6.38784 25.0239 6.16917 24.3866 6.5385L22.5252 7.61317C21.7519 7.00384 20.8986 6.5025 19.9999 6.1305V3.99984C19.9999 3.26384 19.4039 2.6665 18.6666 2.6665H13.3332C12.5959 2.6665 11.9999 3.26384 11.9999 3.99984V6.1305C11.1012 6.50384 10.2479 7.00384 9.47323 7.61317L7.61323 6.5385C6.97456 6.16917 6.1599 6.38784 5.7919 7.02517L3.12523 11.6385C2.75856 12.2732 2.97856 13.0932 3.6119 13.4598L5.44123 14.5172C5.36923 15.0092 5.33323 15.5052 5.33323 15.9998C5.33323 16.4945 5.36923 16.9905 5.44123 17.4825L3.6119 18.5398C2.97723 18.9065 2.75723 19.7265 3.12523 20.3612ZM15.9999 10.6665C18.9412 10.6665 21.3332 13.0585 21.3332 15.9998C21.3332 18.9412 18.9412 21.3332 15.9999 21.3332C13.0586 21.3332 10.6666 18.9412 10.6666 15.9998C10.6666 13.0585 13.0586 10.6665 15.9999 10.6665Z" fill="#B1C7FF"/>
</svg>
