<svg width="32" height="24" viewBox="0 0 32 24" fill="none" xmlns="http://www.w3.org/2000/svg">
<path d="M0 0H32V24H0V0Z" fill="#41479B"/>
<path d="M32 20.875L20.1667 12L32 3.12501V0H27.8333L16 8.87502L4.16666 0H0V3.125L11.8333 12L0 20.875V24H4.16672L16 15.125L27.8333 24H32V20.875Z" fill="white"/>
<path fill-rule="evenodd" clip-rule="evenodd" d="M0.000180423 0L0 0.000240563V1.24984L14.3335 12L0 22.7502V23.9998L0.000186682 24H1.66689L16.0002 13.25L30.3335 24H32V22.7499L17.6669 12L32 1.25013V0H30.3335L16.0002 10.75L1.66689 0H0.000180423Z" fill="#DC251C"/>
<path fill-rule="evenodd" clip-rule="evenodd" d="M12 8V0H20V8H32V16H20V24H12V16H0V8H12Z" fill="white"/>
<path fill-rule="evenodd" clip-rule="evenodd" d="M14 10V0H18V10H32V14H18V24H14V14H0V10H14Z" fill="#DC251C"/>
</svg>
