<svg width="32" height="32" viewBox="0 0 32 32" fill="none" xmlns="http://www.w3.org/2000/svg">
<path d="M19.9998 14.6667H29.3332V17.3334H19.9998V14.6667ZM21.3332 20.0001H29.3332V22.6667H21.3332V20.0001ZM18.6665 9.33341H29.3332V12.0001H18.6665V9.33341ZM5.33317 25.3334H15.9998H17.3332H18.6665V24.0001C18.6665 20.3241 15.6758 17.3334 11.9998 17.3334H9.33317C5.65717 17.3334 2.6665 20.3241 2.6665 24.0001V25.3334H3.99984H5.33317ZM10.6665 16.0001C13.3265 16.0001 15.3332 13.9934 15.3332 11.3334C15.3332 8.67341 13.3265 6.66675 10.6665 6.66675C8.0065 6.66675 5.99984 8.67341 5.99984 11.3334C5.99984 13.9934 8.0065 16.0001 10.6665 16.0001Z" fill="#FCFCFC"/>
</svg>
