<?xml version="1.0" encoding="utf-8"?>
<!-- Generator: Adobe Illustrator 24.2.0, SVG Export Plug-In . SVG Version: 6.00 Build 0)  -->
<svg version="1.1" id="Layer_1" xmlns="http://www.w3.org/2000/svg" xmlns:xlink="http://www.w3.org/1999/xlink" x="0px" y="0px"
	 viewBox="0 0 892.8 165.6" style="enable-background:new 0 0 892.8 165.6;" xml:space="preserve">
<style type="text/css">
	.st0{fill:#ED1B23;}
	.st1{fill:#005AAA;}
	.st2{fill:#009DDB;}
	.st3{fill:#005BAA;}
	.st4{fill:#ED1C24;}
	.st5{fill:#009EDB;}
</style>
<g>
	<g>
		<g>
			<path class="st0" d="M-158.7-10.8c8.8-6.5,20.1-8.7,30.9-7.9c9.1,0.9,17.8,5.4,23.8,12.3c7.4,8.8,10.7,20.7,9.2,32.1
				c-1.4,9.9-5.9,19.4-13.4,26.1c5.8,5.6,11.6,11.5,19,15.1c3.5,1.8,7.3,2.9,11.2,3.4c-3.1,2.4-6.5,4.5-10.2,5.9
				c-5.6,1.9-11.9,2.1-17.4-0.1c-8.6-3.3-15.6-9.5-22.6-15.4c-1-1-2.6-0.4-3.8-0.4c-10.2,1.7-21-1.8-28.6-8.6
				c-8-7-12.6-17.5-13.4-28C-175.5,10.5-169.5-3.2-158.7-10.8z M-140.5-6.8c-4.5,1.3-7.8,5.1-9.5,9.3c-2,5-2.5,10.6-2.4,15.9
				c-0.1,4.7,0.8,9.4,2.4,13.8c1.5,4.8,3.9,9.5,7.6,13c4.7,4.4,12.2,5.1,17.7,2c3.9-2.2,5.9-6.5,7.1-10.6c1.9-6.6,1.5-13.6,0.7-20.3
				c-1-5.6-2.4-11.3-5.5-16.1C-126.1-5.7-133.8-8.7-140.5-6.8z"/>
		</g>
		<path class="st0" d="M-906.6-17.8c16.6,0,33.2,0,49.8,0c13.9,38.2,27.7,76.4,41.6,114.5C-803.4,65.4-791.7,34-780,2.6
			c0.8-2.2,0.8-4.8-0.2-7c-2.1-4.6-4.5-9-6.9-13.3c12.4,0,24.8,0,37.2,0c-1.9,6.9-4.5,13.6-6.8,20.4
			c-16.4,45.7-32.9,91.4-49.4,137.1c-14.1-2.7-28.2-8.1-39-17.9c-5.5-4.9-9.3-11.3-12.1-18c-3-7.3-5.8-14.6-8.8-21.9
			c-11.8-30-23.7-60-35.6-90C-902.9-11.4-904.7-14.6-906.6-17.8z"/>
		<path class="st0" d="M-744.5-17.8c16.2,0,32.3,0,48.5,0c26.2,32.2,52.3,64.5,78.5,96.8c0-24.9,0-49.9,0-74.8
			c0-2.7,0.2-5.7-1.3-8.1c-2.9-4.7-6.2-9.2-9.4-13.7c15.6,0,31.2,0,46.7,0c-3.7,4.7-7.4,9.4-11.2,14.1c-1.1,1.3-1.4,3-1.4,4.6
			c0,46.5,0,92.9,0,139.4c-9.6-1.3-19.4-3.2-28.2-7.5c-7.9-3.8-14.8-9.7-20.4-16.5c-21.8-26.9-43.6-53.8-65.5-80.6
			c0,27.3,0,54.6,0,81.9c-0.1,1.8,0.5,3.5,1.7,4.8c3.7,4.6,7.4,9.3,11.1,14c-15.6,0-31.2,0-46.7,0c2.5-3.9,5.1-7.7,7.8-11.4
			c1.6-2.3,3-5,2.9-7.9c0-23.5,0-47.1,0-70.6c-0.1-14.7,0.1-29.4-0.1-44C-735.6-4.3-740.1-11-744.5-17.8z"/>
		<g>
			<path class="st0" d="M-92-17.1c12.4,0,24.9,0,37.3,0c5.2-0.1,10.7,1.1,15,4.2c5.8,4.1,8.6,11.7,7.6,18.6
				c-0.8,4.2-2.7,8.2-5.9,11.1c-2.2,2-4.8,3.5-7.4,4.9c4.9,8.3,9.9,16.7,14.8,25c2.8,4.3,5.9,8.5,9.7,11.9c-7,0.4-14.1,1.4-21.1,1
				c-2.9-0.1-6-1.2-7.7-3.6c-2.3-3-3.7-6.5-5.6-9.7c-3.5-6.6-7-13.2-10.5-19.7c0,6.9,0,13.8,0,20.8c0,2.8,0.3,5.8,1.8,8.3
				c0.8,1.5,2.2,2.5,3.5,3.6c-10.5,0.1-21.1,0.1-31.6,0c1.2-1.1,2.6-2.1,3.4-3.5c1.3-2.4,1.7-5.2,1.7-7.8c0-15.5,0-31,0-46.6
				c-0.1-4.3,0.3-8.7-0.8-12.9C-88.5-14-90.3-15.6-92-17.1z M-65.8-6.1c0,8.8,0,17.6,0,26.4c2.9-0.6,5.8-1.7,8-3.8
				c5.2-4.8,6-13.5,1.6-19.1C-58.4-5.4-62.3-6.3-65.8-6.1z"/>
		</g>
	</g>
	<g>
		<path class="st1" d="M-573-17c7.8-0.3,15.6,0,23.3-0.1c15.9,0,31.8,0,47.7,0c10,0.2,20.3,1.5,29.1,6.5c6.3,3.6,12.2,8.5,15.6,15
			c4.3,8.4,6,18.1,4.6,27.4c-1,9-5,17.7-11.6,23.9c-8.3,7.9-19.5,11.9-30.5,14.1c-4.3,0.5-8.5,0.8-12.8,1.2
			c-3.7,0.5-7.4-0.6-11.2-0.7c7.4-3,14.2-8,18.2-15c4.7-8.1,5.4-17.9,4.4-27c-0.8-6.4-2.9-13.1-7.9-17.5c-4.4-3.9-10.5-5.2-16.2-5.3
			c-0.1,29.4,0,58.8,0,88.3c0,5.7-0.1,11.4,0.1,17c0.4,7.8,2.3,16.1,7.8,22c1,1.2,2.6,2,3.1,3.5c-21.2,0-42.4,0.1-63.6,0
			c1.9-1.7,3.9-3.2,5.4-5.2c3.8-5.1,5-11.7,5-17.9c0-35,0-70,0-104.9c0-5-0.2-10.1-1.9-14.9C-566.1-10.9-569.5-14.1-573-17z"/>
		<g>
			<path class="st1" d="M-426-17c19.3-0.2,38.6,0,57.9-0.1c15.1,40,30.2,80.1,45.3,120.1c2.8,7.7,5.4,15.6,10.5,22.2
				c2.5,3.4,5.5,6.4,8.6,9.3c0.6,0.5,1,1.1,1.2,1.9c-24,0.1-47.9,0-71.9,0c0-0.2,0-0.7,0-0.9c4.1-2.3,8.3-5.7,9.4-10.6
				c1.1-5.5-0.9-11-2.6-16.1c-2.1-6.3-4.2-12.5-6.3-18.8c-15.7,0-31.3,0-47,0c-1.8,5.2-3.7,10.3-5.5,15.5c-2,5.5-3.8,11.1-4.6,17
				c-0.2,4.4,2.9,8.1,6,10.9c0.9,1,2.4,1.6,2.7,3c-16.2,0-32.5,0-48.7,0c0.3-1.1,1.2-1.8,2-2.5c4-3.6,7.4-7.9,9.7-12.8
				c3-6.6,5.2-13.4,7.5-20.2c10.3-29.3,20.6-58.5,31-87.8C-419,7.6-417,1.9-417.1-4C-417.4-9.7-421.8-13.8-426-17z M-398.3,21.6
				c-5.3,15.5-10.5,31-15.8,46.5c10.8,0,21.6,0,32.4,0C-387.2,52.6-392.8,37.1-398.3,21.6z"/>
		</g>
		<path class="st1" d="M-337-16.9c19.2-0.2,38.3,0,57.5-0.1c11.7,18.5,23.3,37,35,55.5c6.5-9.3,13.1-18.6,19.7-28
			c2.2-3.2,3.8-6.8,4.9-10.5c1-3.5,1.2-7.4-0.7-10.6c-1.6-2.9-4.4-4.6-7-6.3c18.2-0.2,36.4,0,54.6-0.1c-19.3,27.6-38.6,55.2-58,82.8
			c-0.4,0.5-0.7,1.2-0.6,1.8c0,8.9,0,17.7,0,26.6c0,7.1-0.2,14.3,0.6,21.4c1,5.9,2.6,12,6.9,16.4c1.1,1.5,3,2.4,3.6,4.2
			c-21.9,0-43.8,0.1-65.7,0c0.3-1.1,1.4-1.5,2.3-2.2c3.7-2.5,6-6.6,7.1-10.9c1.5-5.8,1-11.9,1.1-17.8c-0.1-12.9,0.1-25.9-0.1-38.8
			c-13.7-20.7-27.7-41.2-41.6-61.8c-3.3-5-6.7-10-10.7-14.5C-330.7-12.5-333.9-14.6-337-16.9z"/>
	</g>
	<g>
		<g>
			<path class="st2" d="M-419.4,165.7c5.2-1,10.5-1.2,15.7-1.5c7.8-0.2,15.9-0.3,23.1,3.1c3.4,1.6,6.6,4.2,8,7.9
				c2,5.1,1.1,10.6-0.2,15.8c-1.5,6.2-4.8,12.1-10,15.9c-6.1,4.4-13.5,6.5-20.9,7.1c-4.5,0.4-9-0.1-13.6-0.3c-1.9,9-3.8,18-5.7,26.9
				c-0.2,1.4-1.2,2.8-2.7,2.7c-3.6,0-7.2,0.1-10.8-0.1c-1.2-0.1-1.5-1.5-1.2-2.5c5.1-24,10.2-48,15.3-72
				C-422.2,167.1-421,165.9-419.4,165.7z M-409.4,176.6c-1.8,8.4-3.6,16.7-5.4,25.1c6.1,0.2,12.4,0.9,18.3-0.9
				c4-1.2,7.2-4.4,8.6-8.3c1.2-3.5,2.2-7.5,0.9-11.1c-1.1-2.9-4.3-4.2-7.1-4.7C-399.1,175.8-404.3,176.2-409.4,176.6z"/>
		</g>
		<path class="st2" d="M-784.3,164.7c8.4-1.3,17.4-0.7,25,3.1c1,0.6,2.5,1.3,2.4,2.7c-0.2,2.1-0.9,4.1-1.2,6.2c-0.2,1-0.4,2.1-1,2.9
			c-0.6,0.7-1.6,0.4-2.3,0.2c-5.4-1.9-11.2-3-16.9-3.1c-3.8,0-8.1,0.5-10.8,3.5c-2,2.3-3,6.2-0.7,8.6c3.3,3.3,7.4,5.6,11.2,8.3
			c4.8,3.4,10.3,6.4,13.5,11.6c3.6,5.7,2.3,13.1-0.2,18.9c-3.3,7.9-10.8,13.3-19,15.3c-8.2,1.9-17,1.8-25-1
			c-2.2-0.8-4.6-1.5-6.2-3.4c-0.3-2.5,0.8-4.9,1.2-7.3c0.2-1.4,0.8-3.6,2.8-3c7.7,2.4,15.8,4.3,23.8,2.9c3.1-0.5,6.1-2.2,7.6-5.1
			c1.5-2.7,2.5-6.4,0.7-9.3c-1.8-2.4-4.3-4-6.7-5.7c-4-2.8-8.1-5.5-12.1-8.4c-3.9-2.8-7.4-6.8-7.9-11.8c-0.5-7.1,2.1-14.5,7.3-19.5
			C-795.1,167.5-789.7,165.5-784.3,164.7z"/>
		<path class="st2" d="M-541.4,172.8c3.1-0.5,6.1-1.1,9.2-1.5c0.8-0.2,2.1,0.1,1.8,1.2c-0.6,3.8-1.6,7.5-2.3,11.2
			c3.6,0,7.2-0.1,10.7,0c0.9-0.1,1.8,0.6,1.6,1.6c-0.3,2.2-0.9,4.4-1.3,6.6c-0.2,1.4-1.5,2.4-2.9,2.3c-3.5,0.1-6.9,0-10.4,0
			c-2.4,11.5-4.9,23-7.3,34.6c-0.1,1.3-0.9,3.5,0.8,4.1c3.4,0.8,6.9-0.1,10.3,0.5c0.2,0.1,0.5,0.4,0.7,0.5c-0.1,2.6-0.9,5.1-1.5,7.7
			c-0.3,1.3-1.8,1.7-2.9,1.8c-5,0.7-10,0.9-15,0c-3.6-0.3-6.8-3.2-6.9-6.9c-0.3-3.5,0.3-6.9,1-10.3c2.3-10.7,4.5-21.4,6.8-32.1
			c-2.8-0.5-5.6-1-8.3-1.5c-0.8-0.2-2-0.7-1.8-1.7c0.2-1.8,0.7-3.5,1.1-5.3c0.2-1.2,1.4-2,2.6-1.9c2.9-0.1,5.7,0,8.6,0
			c0.7-3,1.2-6,2-9C-544.4,173.3-542.7,173-541.4,172.8z"/>
		<path class="st2" d="M-731.5,184.2c6.7-1.7,14.1-1.8,20.5,1.2c1.1,0.7,3,1.3,2.8,2.9c-0.4,2.6-1,5.2-1.7,7.7c-0.3,1.4-1.9,1.5-3,1
			c-4.7-1.7-9.9-2.8-14.9-1.9c-3.5,0.7-6.4,3.2-8,6.2c-2.3,4-2.8,8.7-3.9,13.2c-0.8,4-2,8.2-1.1,12.3c0.6,3.1,3.7,5.3,6.9,5.4
			c4.7,0.1,9.4-0.9,13.9-2.2c0.9-0.3,1.8-0.3,2.7-0.3c0.1,2.3-0.6,4.5-1,6.7c-0.3,1.4-0.5,3.2-2,3.9c-4.7,2.7-10.3,3.7-15.7,3.7
			c-4.2-0.1-8.6-0.8-12.3-3c-3.7-2.3-6.1-6.3-6.7-10.6c-0.8-4.6,0-9.4,1-13.9c1.4-6.1,2.2-12.5,5.2-18.1
			C-745.4,191.6-739,186.1-731.5,184.2z"/>
		<g>
			<path class="st2" d="M-692.9,186.3c7-2.5,14.5-3.7,21.9-3.1c4.5,0.4,9.3,1.8,12.1,5.5c3.1,3.9,3.1,9.3,2.2,14
				c-2.6,12.2-5.2,24.3-7.8,36.5c-0.2,1-0.6,2.1-1.8,2.2c-9.5,2.6-19.6,3.4-29.3,2.1c-4.6-0.7-9.7-2.3-11.9-6.8
				c-2.1-4.9-0.8-10.4,0.9-15.2c1.7-5,5.7-9,10.5-11c7.7-3.2,16.2-2.6,24.3-2.7c0.5-3.3,1.9-6.6,1-10c-0.8-2.4-3.7-3-5.9-3.1
				c-6.5-0.3-13,0.9-19.2,2.7c-0.7,0.2-1.9,0.2-1.8-0.8c0.2-2.5,0.9-4.9,1.4-7.3C-695.9,187.6-694.3,186.8-692.9,186.3z
				 M-687.4,217.6c-2.2,0.4-4.3,1.8-5.2,4c-1,2.6-1.9,5.4-1.6,8.2c0.2,2,2.2,3,3.9,3.3c4.4,0.7,8.8,0.5,13.1-0.4
				c1.1-5.2,2.2-10.4,3.3-15.7C-678.3,217.2-682.9,216.7-687.4,217.6z"/>
		</g>
		<path class="st2" d="M-637.7,185.8c8.7-1.9,17.7-3.3,26.7-2.5c5,0.5,10.5,2.2,13.1,6.8c2.7,4.9,2,10.8,1,16.1
			c-2.4,11.4-4.9,22.8-7.3,34.2c-0.2,1.4-1.2,2.8-2.7,2.8c-3.3,0.1-6.5,0.1-9.8,0c-1.3,0.1-1.8-1.5-1.4-2.6
			c2.5-11.7,5-23.4,7.5-35.1c0.4-2.6,1-5.5-0.4-7.9c-1.3-2.1-3.9-2.5-6.1-2.7c-4.1-0.2-8.3,0.3-12.4,1.1
			c-3.2,14.9-6.3,29.7-9.5,44.6c-0.2,1.4-1.2,2.7-2.7,2.6c-3.3,0-6.5,0.1-9.8,0c-1.3,0-1.8-1.5-1.4-2.6c3.7-17.4,7.4-34.8,11.1-52.2
			C-641.6,186.5-639.3,186.2-637.7,185.8z"/>
		<g>
			<path class="st2" d="M-494.6,183.7c5.4-1,11.1-0.9,16.3,1c4.3,1.6,7.8,5.2,9.3,9.6c1.8,4.9,1.5,10.4,0.4,15.4
				c-1.3,5.9-2.1,12-5,17.5c-3.6,7.2-10,13.1-17.7,15.5c-5.6,1.7-11.7,1.9-17.4,0.5c-4.5-1.2-8.6-4.1-10.6-8.3
				c-2.6-5.2-2.5-11.3-1.4-16.8c1.4-6.5,2.3-13.3,5.7-19.1C-511,191.1-503.3,185.2-494.6,183.7z M-492.3,195.1
				c-3.6,0.4-6.9,2.4-8.9,5.3c-2.6,3.4-3.6,7.8-4.4,11.9c-0.9,4.6-2.5,9.4-1.2,14.1c0.6,2.4,2.5,4.5,5,5.2c4.1,1.2,8.8,0.1,12-2.9
				c3.5-3.3,5.2-8,6-12.6c0.7-3.9,2-7.8,2-11.8c-0.1-2.6-0.7-5.5-2.7-7.3C-486.7,195.2-489.6,194.9-492.3,195.1z"/>
		</g>
		<g>
			<path class="st2" d="M-363.9,186.2c6.9-2.4,14.3-3.6,21.5-3.1c4.6,0.4,9.6,1.8,12.4,5.7c3,4,3,9.3,2,14
				c-2.3,11-4.7,22.1-7.1,33.1c-0.4,1.6-0.5,3.2-1.2,4.7c-1.1,1-2.7,1-4,1.4c-7.9,1.9-16.1,2.4-24.2,1.7c-4.5-0.5-9.4-1.4-12.6-4.8
				c-2.9-3-3-7.6-2.3-11.4c0.9-4.8,2.5-9.8,6.2-13.2c4.3-4,10.2-5.7,15.9-6.2c4.8-0.6,9.6-0.3,14.3-0.4c0.6-3.2,1.8-6.4,1.1-9.6
				c-0.6-2.5-3.4-3.3-5.7-3.4c-5.3-0.3-10.7,0.4-15.8,1.7c-1.6,0.3-3.1,1-4.8,1.1c-1.1-0.3-0.6-1.6-0.5-2.4c0.4-2.1,0.8-4.1,1.3-6.1
				C-366.9,187.4-365.3,186.8-363.9,186.2z M-358.3,217.6c-2.3,0.4-4.6,1.8-5.5,4.1c-1,2.6-1.8,5.4-1.5,8.2c0.2,1.8,2.1,2.9,3.7,3.2
				c4.4,0.7,9,0.6,13.4-0.4c1.1-5.2,2.2-10.4,3.3-15.6C-349.4,217.2-353.9,216.8-358.3,217.6z"/>
		</g>
		<path class="st2" d="M-316.2,186.6c-0.2-1.3,0.5-2.8,1.9-2.8c3.8-0.1,7.6-0.1,11.3,0c1.2,0,1.4,1.5,1.4,2.5c0.5,14,1,28,1.5,42
			c-0.1,1.3,0.3,2.9,1.9,2.6c6.7-14.5,13.5-29,20.2-43.6c0.5-1,0.9-2.1,1.7-3c0.9-0.9,2.3-0.6,3.5-0.6c3.1,0.1,6.2-0.1,9.2,0.1
			c1.2,0,1.6,1.6,0.9,2.4c-9.2,18.5-18.4,36.9-27.6,55.4c-2.4,4.8-4.6,9.8-7.8,14.1c-2.7,3.8-6.8,6.6-11.4,7.7
			c-5.5,1.2-11.2,1.2-16.7,0.2c-1.8-0.3-3.7-0.5-5.1-1.9c0.6-2.4,1-4.9,1.6-7.3c0.2-1,1.1-1.8,2.1-1.9c5.3-0.2,10.7,1.3,16,0.2
			c4.2-1.3,5.8-5.9,7.6-9.4c-2.3-0.1-5,0.1-6.6-1.8c-2.2-2.4-2.2-5.9-2.5-9C-313.9,217.2-315,201.9-316.2,186.6z"/>
	</g>
</g>
<g>
	<path class="st3" d="M-1210.2-1.8l-46.4,46.4l-2.3,2.3l-14.7,14.7l-10.9,11l-14.7,14.7l-2.3,2.2l-6.4,6.5l-2.3,2.2l0,0l-21.7,21.7
		l0,0l-2.3,2.2c-6.3,6.3-13.5,11.7-21.3,16.1c-3.7,2.1-7.6,3.9-11.6,5.4c-9,3.5-18.4,5.6-28,6.1c-5.8,0.5-11.7,0.5-17.5,0
		c-12.7-1.4-25-5.3-36.2-11.6c-5-2.6-9.7-5.9-13.9-9.7l0,0l-2.7-2.7l-84.5-85.3l-1.7-1.7c-1.5-1.6-2.8-3.4-3.9-5.3
		c-2.9-4.9-4.4-10.5-4.4-16.2c-0.1-0.9-0.1-1.8,0-2.7c0-1.4,0-2.8,0-4.1V9l0,0c1.1-4.2,3.1-8.2,5.8-11.6c0.7-0.9,1.5-1.8,2.3-2.5
		l1.5-1.5l91-89.8l0,0l54.5-54.4c12-12,31.3-12.7,44.2-1.5L-1210.2-1.8z"/>
	<path class="st4" d="M-1373.9,200.4c-7.3,0-14.6-1.6-21.2-4.8l-17.3-17.2l-4.3-4.2l-0.7-0.8l-8-8l-40.2-40.7l2.7,2.7
		c4.2,3.9,8.9,7.2,14,9.9c11.1,6.3,23.4,10.2,36.2,11.6c5.8,0.5,11.7,0.5,17.5,0c9.6-0.6,19.1-2.7,28-6.1c4-1.5,7.9-3.4,11.6-5.4
		c7.8-4.4,15-9.8,21.3-16.1l2.3-2.2l0,0l21.7-21.7l0,0l2.3-2.2l6.4-6.5l2.3-2.2l14.7-14.7l10.9-11l15.1-13.9l2.3-2.3l93.3-92.7
		l38.2-42.5l0,0l2.1-2c11.8-11.7,30.8-11.7,42.5,0l21.1,21.1l0,0h0.7c-9.6-0.4-18.9,3.2-25.7,9.9l-71.3,69.5l-0.7,0.8l-123.8,123.3
		l0,0l-45.8,44.8l0,0l-2.8,2.9c-6.2,6-13.4,11.1-21.2,14.8c-4.3,2.1-8.9,3.7-13.7,4.6c-2.7,0.6-5.5,0.9-8.2,1L-1373.9,200.4z"/>
	<path class="st4" d="M-944.8,85l-2.3,2.3l-100.9,102.4l-106.3,107.7c-3.3,3.3-6.9,6.4-10.7,9.2l0,0l-1.5,1l0,0
		c-38.1,27.2-90.2,23.6-124.1-8.7l0,0l-2.8-1.6l-18.2-18.2l-51.3-51.3l-17.2-17.3l-2.3-2.4c2.8,0.5,5.5,0.7,8.3,0.7h2.4
		c3.3-0.1,6.5-0.6,9.7-1.3c5.4-1.1,10.7-2.9,15.6-5.3c8.5-4.2,16.4-9.8,23.2-16.5l3.1-3.4l39.4-38.7l0,0l135.5-133.3l0.7-0.9
		l66.5-64.4c8.9-8.5,22.5-9.7,32.8-2.9l15.5,15.6l0,0l84.6,84.7c0.8,0.7,1.5,1.5,2.1,2.3C-933.1,56.8-933.9,74.1-944.8,85z"/>
	<path class="st5" d="M-1271.8-27.1c-2.5,2.3-6.3,2.3-8.8,0c-40-40.3-105.1-40.5-145.4-0.5s-40.5,105.1-0.5,145.4l30.9,31.1
		c0,0.2-12.2,0.4-17.9-0.1l-21.9-21.9c-44.8-45.1-44.5-118,0.6-162.8c45.1-44.8,118-44.5,162.8,0.6l0,0
		C-1269.9-33.1-1269.8-29.5-1271.8-27.1z"/>
	<path class="st5" d="M-1223.9,12.3l-8.7,8.6l-15.2-15.3c-2.4-2.4-2.4-6.3,0-8.7c0,0,0,0,0,0c2.4-2.4,6.3-2.4,8.7,0c0,0,0,0,0,0
		L-1223.9,12.3z"/>
	<path class="st5" d="M-1355.6,137.3c0,0-7.6,4-11.6,5.4l-42.1-42.1c-26.7-26.9-30.5-68.9-9-100.1c1.9-2.8,5.7-3.5,8.6-1.6
		c2.8,1.9,3.5,5.8,1.5,8.6c0,0,0,0,0,0c-18.1,26.3-14.9,61.8,7.6,84.5L-1355.6,137.3z"/>
	<path class="st5" d="M-1249.8,37.9L-1249.8,37.9l-6.4,6.4l-2.1,2.1L-1306.1-2c-17.9-17.9-44.4-24.2-68.4-16.1
		c-3.1,1.4-6.7,0.1-8.2-3c-1.4-3.1-0.1-6.7,3-8.2c0.4-0.2,0.9-0.3,1.3-0.4c28.3-9.3,59.4-1.7,80.3,19.5L-1249.8,37.9z"/>
	<path class="st5" d="M-1276,63l-8.6,8.7l-47.6-47.9c-12.9-10.5-31.9-8.7-42.4,4.2c-9.1,11.2-9.1,27.2,0.1,38.3l30.9,31.2
		c2.4,2.4,2.4,6.3,0,8.7c-2.4,2.4-6.3,2.4-8.7,0l-31.5-31.2c-15.8-17.4-14.4-44.3,3-60.1c16.3-14.8,41.2-14.7,57.4,0.3L-1276,63z"/>
	<path class="st5" d="M-1301.6,88.6l-8.5,8.5l-47.8-47.7c-2.4-2.4-2.4-6.3,0-8.7c2.4-2.4,6.3-2.4,8.7,0L-1301.6,88.6z"/>
</g>
<g>
	<path class="st3" d="M1263.8-1.8l-46.4,46.4l-2.3,2.3l-14.7,14.7l-10.9,11l-14.7,14.7l-2.3,2.2l-6.4,6.5l-2.3,2.2l0,0l-21.7,21.7
		l0,0l-2.3,2.2c-6.3,6.3-13.5,11.7-21.3,16.1c-3.7,2.1-7.6,3.9-11.6,5.4c-9,3.5-18.4,5.6-28,6.1c-5.8,0.5-11.7,0.5-17.5,0
		c-12.7-1.4-25-5.3-36.2-11.6c-5-2.6-9.7-5.9-13.9-9.7l0,0l-2.7-2.7l-84.5-85.3l-1.7-1.7c-1.5-1.6-2.8-3.4-3.9-5.3
		c-2.9-4.9-4.4-10.5-4.4-16.2c-0.1-0.9-0.1-1.8,0-2.7c0-1.4,0-2.8,0-4.1V9l0,0c1.1-4.2,3.1-8.2,5.8-11.6c0.7-0.9,1.5-1.8,2.3-2.5
		l1.5-1.5l91-89.8l0,0l54.5-54.4c12-12,31.3-12.7,44.2-1.5L1263.8-1.8z"/>
	<path class="st4" d="M1100.1,200.4c-7.3,0-14.6-1.6-21.2-4.8l-17.3-17.2l-4.3-4.2l-0.7-0.8l-8-8l-40.2-40.7l2.7,2.7
		c4.2,3.9,8.9,7.2,14,9.9c11.1,6.3,23.4,10.2,36.2,11.6c5.8,0.5,11.7,0.5,17.5,0c9.6-0.6,19.1-2.7,28-6.1c4-1.5,7.9-3.4,11.6-5.4
		c7.8-4.4,15-9.8,21.3-16.1l2.3-2.2l0,0l21.7-21.7l0,0l2.3-2.2l6.4-6.5l2.3-2.2l14.7-14.7l10.9-11l15.1-13.9l2.3-2.3l93.3-92.7
		l38.2-42.5l0,0l2.1-2c11.8-11.7,30.8-11.7,42.5,0l21.1,21.1l0,0h0.7c-9.6-0.4-18.9,3.2-25.7,9.9l-71.3,69.5l-0.7,0.8l-123.8,123.3
		l0,0l-45.8,44.8l0,0l-2.8,2.9c-6.2,6-13.4,11.1-21.2,14.8c-4.3,2.1-8.9,3.7-13.7,4.6c-2.7,0.6-5.5,0.9-8.2,1L1100.1,200.4z"/>
	<path class="st4" d="M1529.2,85l-2.3,2.3l-100.9,102.4l-106.3,107.7c-3.3,3.3-6.9,6.4-10.7,9.2l0,0l-1.5,1l0,0
		c-38.1,27.2-90.2,23.6-124.1-8.7l0,0l-2.8-1.6l-18.2-18.2l-51.3-51.3l-17.2-17.3l-2.3-2.4c2.8,0.5,5.5,0.7,8.3,0.7h2.4
		c3.3-0.1,6.5-0.6,9.7-1.3c5.4-1.1,10.7-2.9,15.6-5.3c8.5-4.2,16.4-9.8,23.2-16.5l3.1-3.4l39.4-38.7l0,0L1329,10.4l0.7-0.9
		l66.5-64.4c8.9-8.5,22.5-9.7,32.8-2.9l15.5,15.6l0,0l84.6,84.7c0.8,0.7,1.5,1.5,2.1,2.3C1540.9,56.8,1540.1,74.1,1529.2,85z"/>
	<path class="st5" d="M1202.2-27.1c-2.5,2.3-6.3,2.3-8.8,0c-40-40.3-105.1-40.5-145.4-0.5c-40.3,40-40.5,105.1-0.5,145.4l30.9,31.1
		c0,0.2-12.2,0.4-17.9-0.1l-21.9-21.9c-44.8-45.1-44.5-118,0.6-162.8c45.1-44.8,118-44.5,162.8,0.6l0,0
		C1204.1-33.1,1204.2-29.5,1202.2-27.1z"/>
	<path class="st5" d="M1250.1,12.3l-8.7,8.6l-15.2-15.3c-2.4-2.4-2.4-6.3,0-8.7c0,0,0,0,0,0c2.4-2.4,6.3-2.4,8.7,0c0,0,0,0,0,0
		L1250.1,12.3z"/>
	<path class="st5" d="M1118.4,137.3c0,0-7.6,4-11.6,5.4l-42.1-42.1c-26.7-26.9-30.5-68.9-9-100.1c1.9-2.8,5.7-3.5,8.6-1.6
		c2.8,1.9,3.5,5.8,1.5,8.6c0,0,0,0,0,0c-18.1,26.3-14.9,61.8,7.6,84.5L1118.4,137.3z"/>
	<path class="st5" d="M1224.2,37.9L1224.2,37.9l-6.4,6.4l-2.1,2.1L1167.9-2c-17.9-17.9-44.4-24.2-68.4-16.1c-3.1,1.4-6.7,0.1-8.2-3
		c-1.4-3.1-0.1-6.7,3-8.2c0.4-0.2,0.9-0.3,1.3-0.4c28.3-9.3,59.4-1.7,80.3,19.5L1224.2,37.9z"/>
	<path class="st5" d="M1198,63l-8.6,8.7l-47.6-47.9c-12.9-10.5-31.9-8.7-42.4,4.2c-9.1,11.2-9.1,27.2,0.1,38.3l30.9,31.2
		c2.4,2.4,2.4,6.3,0,8.7c-2.4,2.4-6.3,2.4-8.7,0l-31.5-31.2c-15.8-17.4-14.4-44.3,3-60.1c16.3-14.8,41.2-14.7,57.4,0.3L1198,63z"/>
	<path class="st5" d="M1172.4,88.6l-8.5,8.5l-47.8-47.7c-2.4-2.4-2.4-6.3,0-8.7c2.4-2.4,6.3-2.4,8.7,0L1172.4,88.6z"/>
</g>
<g>
	<g>
		<g>
			<path class="st0" d="M751.4,11.2c8.8-6.5,20.1-8.7,30.9-7.9c9.1,0.9,17.8,5.4,23.8,12.3c7.4,8.8,10.7,20.7,9.2,32.1
				c-1.4,9.9-5.9,19.4-13.4,26.1c5.8,5.6,11.6,11.5,19,15.1c3.5,1.8,7.3,2.9,11.2,3.4c-3.1,2.4-6.5,4.5-10.2,5.9
				c-5.6,1.9-11.9,2.1-17.4-0.1c-8.6-3.3-15.6-9.5-22.6-15.4c-1-1-2.6-0.4-3.8-0.4c-10.2,1.7-21-1.8-28.6-8.6
				c-8-7-12.6-17.5-13.4-28C734.5,32.5,740.6,18.8,751.4,11.2z M769.6,15.2c-4.5,1.3-7.8,5.1-9.5,9.3c-2,5-2.5,10.6-2.4,15.9
				c-0.1,4.7,0.8,9.4,2.4,13.8c1.5,4.8,3.9,9.5,7.6,13c4.7,4.4,12.2,5.1,17.7,2c3.9-2.2,5.9-6.5,7.1-10.6c1.9-6.6,1.5-13.6,0.7-20.3
				c-1-5.6-2.4-11.3-5.5-16.1C784,16.3,776.3,13.4,769.6,15.2z"/>
		</g>
		<path class="st0" d="M3.5,4.2c16.6,0,33.2,0,49.8,0C67.2,42.4,81,80.6,94.9,118.8c11.7-31.4,23.5-62.7,35.2-94.1
			c0.8-2.2,0.8-4.8-0.2-7c-2.1-4.6-4.5-9-6.9-13.3c12.4,0,24.8,0,37.2,0c-1.9,6.9-4.5,13.6-6.8,20.4
			c-16.4,45.7-32.9,91.4-49.4,137.1c-14.1-2.7-28.2-8.1-39-17.9c-5.5-4.9-9.3-11.3-12.1-18c-3-7.3-5.8-14.6-8.8-21.9
			c-11.8-30-23.7-60-35.6-90C7.1,10.7,5.4,7.4,3.5,4.2z"/>
		<path class="st0" d="M165.6,4.2c16.2,0,32.3,0,48.5,0c26.2,32.2,52.3,64.5,78.5,96.8c0-24.9,0-49.9,0-74.8c0-2.7,0.2-5.7-1.3-8.1
			c-2.9-4.7-6.2-9.2-9.4-13.7c15.6,0,31.2,0,46.7,0c-3.7,4.7-7.4,9.4-11.2,14.1c-1.1,1.3-1.4,3-1.4,4.6c0,46.5,0,92.9,0,139.4
			c-9.6-1.3-19.4-3.2-28.2-7.5c-7.9-3.8-14.8-9.7-20.4-16.5c-21.8-26.9-43.6-53.8-65.5-80.6c0,27.3,0,54.6,0,81.9
			c-0.1,1.8,0.5,3.5,1.7,4.8c3.7,4.6,7.4,9.3,11.1,14c-15.6,0-31.2,0-46.7,0c2.5-3.9,5.1-7.7,7.8-11.4c1.6-2.3,3-5,2.9-7.9
			c0-23.5,0-47.1,0-70.6c-0.1-14.7,0.1-29.4-0.1-44C174.5,17.7,169.9,11.1,165.6,4.2z"/>
		<g>
			<path class="st0" d="M818.1,4.9c12.4,0,24.9,0,37.3,0c5.2-0.1,10.7,1.1,15,4.2c5.8,4.1,8.6,11.7,7.6,18.6
				c-0.8,4.2-2.7,8.2-5.9,11.1c-2.2,2-4.8,3.5-7.4,4.9c4.9,8.3,9.9,16.7,14.8,25c2.8,4.3,5.9,8.5,9.7,11.9c-7,0.4-14.1,1.4-21.1,1
				c-2.9-0.1-6-1.2-7.7-3.6c-2.3-3-3.7-6.5-5.6-9.7c-3.5-6.6-7-13.2-10.5-19.7c0,6.9,0,13.8,0,20.8c0,2.8,0.3,5.8,1.8,8.3
				c0.8,1.5,2.2,2.5,3.5,3.6c-10.5,0.1-21.1,0.1-31.6,0c1.2-1.1,2.6-2.1,3.4-3.5c1.3-2.4,1.7-5.2,1.7-7.8c0-15.5,0-31,0-46.6
				c-0.1-4.3,0.3-8.7-0.8-12.9C821.6,8,819.8,6.4,818.1,4.9z M844.3,15.9c0,8.8,0,17.6,0,26.4c2.9-0.6,5.8-1.7,8-3.8
				c5.2-4.8,6-13.5,1.6-19.1C851.7,16.6,847.8,15.8,844.3,15.9z"/>
		</g>
	</g>
	<g>
		<path class="st1" d="M337.1,5c7.8-0.3,15.6,0,23.3-0.1c15.9,0,31.8,0,47.7,0c10,0.2,20.3,1.5,29.1,6.5c6.3,3.6,12.2,8.5,15.6,15
			c4.3,8.4,6,18.1,4.6,27.4c-1,9-5,17.7-11.6,23.9c-8.3,7.9-19.5,11.9-30.5,14.1c-4.3,0.5-8.5,0.8-12.8,1.2
			c-3.7,0.5-7.4-0.6-11.2-0.7c7.4-3,14.2-8,18.2-15c4.7-8.1,5.4-17.9,4.4-27c-0.8-6.4-2.9-13.1-7.9-17.5c-4.4-3.9-10.5-5.2-16.2-5.3
			c-0.1,29.4,0,58.8,0,88.3c0,5.7-0.1,11.4,0.1,17c0.4,7.8,2.3,16.1,7.8,22c1,1.2,2.6,2,3.1,3.5c-21.2,0-42.4,0.1-63.6,0
			c1.9-1.7,3.9-3.2,5.4-5.2c3.8-5.1,5-11.7,5-17.9c0-35,0-70,0-104.9c0-5-0.2-10.1-1.9-14.9C344,11.1,340.5,7.9,337.1,5z"/>
		<g>
			<path class="st1" d="M484.1,5c19.3-0.2,38.6,0,57.9-0.1c15.1,40,30.2,80.1,45.3,120.1c2.8,7.7,5.4,15.6,10.5,22.2
				c2.5,3.4,5.5,6.4,8.6,9.3c0.6,0.5,1,1.1,1.2,1.9c-24,0.1-47.9,0-71.9,0c0-0.2,0-0.7,0-0.9c4.1-2.3,8.3-5.7,9.4-10.6
				c1.1-5.5-0.9-11-2.6-16.1c-2.1-6.3-4.2-12.5-6.3-18.8c-15.7,0-31.3,0-47,0c-1.8,5.2-3.7,10.3-5.5,15.5c-2,5.5-3.8,11.1-4.6,17
				c-0.2,4.4,2.9,8.1,6,10.9c0.9,1,2.4,1.6,2.7,3c-16.2,0-32.5,0-48.7,0c0.3-1.1,1.2-1.8,2-2.5c4-3.6,7.4-7.9,9.7-12.8
				c3-6.6,5.2-13.4,7.5-20.2c10.3-29.3,20.6-58.5,31-87.8c1.9-5.5,3.9-11.2,3.8-17.1C492.7,12.3,488.3,8.2,484.1,5z M511.8,43.6
				c-5.3,15.5-10.5,31-15.8,46.5c10.8,0,21.6,0,32.4,0C522.8,74.6,517.3,59.1,511.8,43.6z"/>
		</g>
		<path class="st1" d="M573.1,5.1c19.2-0.2,38.3,0,57.5-0.1c11.7,18.5,23.3,37,35,55.5c6.5-9.3,13.1-18.6,19.7-28
			c2.2-3.2,3.8-6.8,4.9-10.5c1-3.5,1.2-7.4-0.7-10.6c-1.6-2.9-4.4-4.6-7-6.3c18.2-0.2,36.4,0,54.6-0.1c-19.3,27.6-38.6,55.2-58,82.8
			c-0.4,0.5-0.7,1.2-0.6,1.8c0,8.9,0,17.7,0,26.6c0,7.1-0.2,14.3,0.6,21.4c1,5.9,2.6,12,6.9,16.4c1.1,1.5,3,2.4,3.6,4.2
			c-21.9,0-43.8,0.1-65.7,0c0.3-1.1,1.4-1.5,2.3-2.2c3.7-2.5,6-6.6,7.1-10.9c1.5-5.8,1-11.9,1.1-17.8c-0.1-12.9,0.1-25.9-0.1-38.8
			c-13.7-20.7-27.7-41.2-41.6-61.8c-3.3-5-6.7-10-10.7-14.5C579.4,9.5,576.1,7.4,573.1,5.1z"/>
	</g>
</g>
</svg>
