<svg width="32" height="32" viewBox="0 0 32 32" fill="none" xmlns="http://www.w3.org/2000/svg">
<path d="M5.33341 14.6667H4.66675V8.66667H6.00008V14.6667H5.33341ZM23.0374 23.0533C23.2587 22.7513 23.4814 22.49 23.6667 22.2853C23.8521 22.49 24.0747 22.752 24.2961 23.0533C24.8574 23.82 25.3334 24.7347 25.3334 25.576C25.3334 26.5707 24.5634 27.3333 23.6667 27.3333C22.7701 27.3333 22.0001 26.5707 22.0001 25.576C22.0001 24.7347 22.4761 23.8193 23.0374 23.0533ZM26.6667 16.6667H27.3334V19.3333H19.3334V16.6667H20.6667V15.3333C20.6667 14.8029 20.456 14.2942 20.081 13.9191C19.7059 13.544 19.1972 13.3333 18.6667 13.3333V8H20.0001C21.5914 8 23.1175 8.63214 24.2427 9.75736C25.3679 10.8826 26.0001 12.4087 26.0001 14V16.6667H26.6667ZM12.6667 8H16.0001V15.3333H8.66675V8H12.6667Z" fill="white" stroke="white" stroke-width="1.33333"/>
</svg>
